{"glyphs":{"0":{"ha":671,"x_min":0,"x_max":671,"o":"m 174 -17 q 28 61 75 -17 q 0 186 0 108 q 74 475 0 315 q 266 746 149 635 q 507 857 383 857 q 533 846 522 857 q 544 819 544 835 q 533 793 544 804 q 507 782 522 782 q 305 680 406 782 q 139 435 204 578 q 74 186 74 293 q 93 99 74 135 q 174 58 117 58 q 382 165 272 58 q 557 435 486 268 q 596 590 596 528 q 576 654 596 635 q 544 667 564 667 q 475 638 513 667 q 410 551 438 608 q 378 418 382 494 q 366 394 376 404 q 340 383 356 383 q 313 394 325 383 q 303 422 301 406 q 346 591 308 518 q 438 703 383 664 q 544 742 492 742 q 631 707 596 742 q 671 592 671 665 q 635 427 671 518 q 544 251 599 336 q 435 111 489 165 q 304 16 371 49 q 174 -17 238 -17 z "},"1":{"ha":525,"x_min":0,"x_max":525,"o":"m 19 -10 q 0 24 0 1 q 6 42 0 35 l 301 567 q 183 536 244 536 q 127 545 153 536 q 88 568 101 554 q 78 594 78 578 q 89 622 78 611 q 115 632 99 632 q 142 621 132 632 q 183 611 154 611 q 312 661 240 611 q 456 839 383 711 q 488 857 465 857 q 507 853 499 857 q 525 819 525 843 q 521 801 525 810 l 71 6 q 38 -14 58 -14 q 19 -10 28 -14 z "},"2":{"ha":833,"x_min":0,"x_max":774,"o":"m 69 10 q 38 -8 57 -8 q 12 2 24 -8 q 0 29 0 13 q 30 103 0 68 q 108 171 60 139 q 249 257 157 203 q 431 368 357 319 q 572 481 504 417 q 675 618 640 544 q 699 703 699 665 q 688 746 699 731 q 583 782 667 782 q 460 742 521 782 q 363 646 400 701 q 325 551 325 590 q 331 532 325 539 q 360 525 338 525 q 464 583 411 525 q 546 706 517 642 q 559 721 550 715 q 579 726 568 726 q 606 715 596 726 q 617 689 617 704 q 614 674 617 685 q 596 641 613 672 q 547 565 579 610 q 360 450 457 450 q 278 478 307 450 q 250 551 250 506 q 298 685 250 613 q 423 807 346 757 q 583 857 500 857 q 751 785 708 857 q 774 706 774 750 q 743 586 774 653 q 630 432 703 503 q 478 308 557 361 q 286 192 399 256 q 156 113 203 144 q 335 92 215 113 q 409 81 346 90 q 525 71 472 71 q 656 113 619 71 q 683 125 667 125 q 708 115 699 125 q 721 89 721 106 q 711 63 721 74 q 522 -4 653 -4 q 319 18 453 -4 q 231 31 275 25 q 156 38 188 38 q 69 10 90 38 z "},"3":{"ha":833,"x_min":0,"x_max":817,"o":"m 175 -14 q 94 -1 132 -14 q 10 78 33 22 q 0 132 0 101 q 15 211 0 168 q 136 390 56 324 q 214 438 174 421 q 290 454 254 454 q 386 426 351 454 q 422 350 422 399 q 406 283 422 318 q 358 217 389 247 q 289 167 326 185 q 215 149 251 149 q 189 160 200 149 q 178 186 178 171 q 189 213 178 201 q 215 224 200 224 q 260 235 236 224 q 304 269 283 247 q 335 310 324 288 q 347 350 347 332 q 339 368 347 363 q 290 379 328 379 q 221 358 260 379 q 145 292 182 336 q 86 186 108 249 q 75 135 75 157 q 81 106 75 122 q 121 69 89 82 q 175 61 144 61 q 325 103 250 61 q 442 196 392 139 q 518 325 492 253 q 533 403 533 365 q 515 469 533 442 q 447 522 492 506 q 378 538 401 538 l 376 538 q 353 543 364 536 q 338 563 342 550 q 336 575 336 567 q 354 607 336 596 l 615 765 q 604 764 608 765 q 513 761 568 761 q 408 769 442 761 q 360 793 375 778 q 347 821 347 804 q 357 846 347 836 q 383 857 367 857 q 410 847 400 857 q 514 836 432 836 q 604 839 568 836 q 724 851 676 844 q 774 857 772 857 q 799 851 788 858 q 814 832 810 844 q 817 818 817 824 q 812 801 817 810 q 799 788 807 793 l 472 592 q 576 513 542 564 q 608 404 608 468 q 588 299 608 356 q 497 147 556 214 q 361 38 439 79 q 221 -11 290 -1 q 175 -14 190 -14 z "},"4":{"ha":833,"x_min":0,"x_max":686,"o":"m 179 -10 q 160 24 160 1 q 165 42 160 35 l 322 319 q 254 334 314 321 q 142 347 194 347 q 76 335 101 347 l 60 322 q 38 315 49 315 q 10 328 21 315 q 0 353 0 338 q 11 379 0 368 q 142 481 17 383 q 336 719 268 579 q 355 772 353 756 q 357 807 357 789 q 356 819 356 811 q 366 846 356 835 q 393 857 376 857 q 414 850 404 857 q 428 832 424 843 q 433 799 433 815 q 403 688 433 749 q 179 419 346 567 q 290 403 231 415 q 361 388 350 390 l 615 839 q 649 857 625 857 q 667 853 658 857 q 686 819 686 842 q 681 801 686 808 l 440 376 l 458 375 q 479 379 475 375 q 506 390 490 390 q 532 379 521 390 q 543 353 543 368 q 532 326 543 338 q 453 300 507 300 q 400 304 428 300 l 231 6 q 197 -14 218 -14 q 179 -10 188 -14 z "},"5":{"ha":833,"x_min":0,"x_max":776,"o":"m 94 -1 q 25 50 50 15 q 0 133 0 85 q 15 211 0 168 q 88 340 42 285 q 188 425 135 396 q 290 454 242 454 q 381 426 346 454 q 414 353 414 399 q 384 260 414 308 q 308 181 354 213 q 215 149 263 149 q 189 160 200 149 q 178 186 178 171 q 189 213 178 201 q 215 224 200 224 q 271 245 242 224 q 319 297 300 267 q 339 353 339 328 q 332 369 339 367 q 290 379 322 379 q 221 358 260 379 q 145 292 182 336 q 86 186 108 249 q 75 133 75 157 q 121 69 75 86 q 175 61 144 61 q 325 103 250 61 q 438 192 390 138 q 509 303 485 246 q 533 408 533 361 q 491 503 533 469 q 385 536 449 536 q 265 506 326 536 q 249 501 257 501 q 222 513 233 501 q 210 539 210 524 q 215 557 210 550 l 374 839 q 406 857 383 857 q 432 847 422 857 q 453 840 435 844 q 517 836 472 836 q 590 839 561 836 q 677 849 635 843 q 731 857 719 856 q 759 851 746 860 q 774 826 772 842 q 767 799 776 811 q 743 783 758 786 q 514 761 606 761 q 421 771 456 761 l 329 606 q 386 611 356 611 q 545 556 481 611 q 610 407 610 500 q 588 299 610 356 q 483 131 551 203 q 332 22 414 60 q 175 -15 250 -15 q 94 -1 136 -15 z "},"6":{"ha":833,"x_min":0,"x_max":642,"o":"m 172 -17 q 39 44 85 -17 q 0 183 0 97 q 42 394 0 278 q 152 615 83 510 q 299 782 221 719 q 479 857 390 857 q 598 813 554 857 q 642 685 642 769 q 635 619 642 651 q 626 585 629 588 q 609 563 622 571 q 581 560 596 556 q 561 574 568 564 q 554 594 554 583 q 556 607 554 603 q 565 685 565 643 q 547 756 565 732 q 479 782 529 782 q 347 726 418 782 q 211 569 276 669 q 111 367 147 471 q 75 183 75 263 q 99 89 75 124 q 172 58 121 58 q 305 111 246 58 q 397 239 364 164 q 429 376 429 314 q 415 436 429 414 q 375 458 401 458 q 246 364 304 458 q 215 301 226 332 q 200 260 203 269 q 187 240 197 247 q 164 232 176 232 q 133 247 144 232 q 128 279 122 263 q 161 366 135 308 q 242 478 188 424 q 375 533 297 533 q 471 489 438 533 q 504 375 504 444 q 462 200 504 292 q 344 46 419 108 q 172 -17 268 -17 z "},"7":{"ha":833,"x_min":0,"x_max":557,"o":"m 49 -10 q 31 24 31 0 q 35 42 31 33 l 201 336 q 153 340 164 340 q 106 328 118 340 q 79 318 96 318 q 53 328 63 318 q 42 356 42 342 q 53 382 42 371 q 151 415 86 415 q 240 406 186 415 l 421 724 l 397 722 q 249 742 349 722 q 131 758 163 758 q 69 733 83 758 q 38 715 60 715 q 19 719 28 715 q 0 753 0 731 q 6 771 0 764 q 135 833 42 833 q 219 825 172 833 q 274 815 265 817 q 396 799 360 799 q 486 839 463 799 q 518 857 496 857 q 536 853 528 857 q 551 836 546 847 q 556 814 557 825 q 508 726 554 808 q 318 390 461 643 q 378 382 351 382 q 389 383 386 382 q 414 393 401 393 q 440 382 429 393 q 451 356 451 371 q 440 328 451 342 q 376 307 418 307 q 279 321 339 307 l 100 6 q 67 -14 89 -14 q 49 -10 57 -14 z "},"8":{"ha":833,"x_min":0,"x_max":624,"o":"m 438 83 q 328 10 388 35 q 208 -14 268 -14 q 60 38 119 -14 q 0 179 0 89 q 34 310 0 244 q 132 429 68 376 q 283 508 196 482 q 229 647 229 567 q 249 734 229 693 q 308 804 269 775 q 376 842 338 828 q 456 857 415 857 q 569 814 522 857 q 610 758 596 790 q 624 690 624 726 q 578 568 624 626 q 440 474 532 510 q 513 392 488 433 q 538 296 538 350 q 511 185 538 240 q 438 83 485 129 m 369 529 q 505 599 461 554 q 549 689 549 643 q 522 755 549 728 q 457 782 496 782 q 388 766 424 782 q 328 719 351 750 q 304 647 304 689 q 320 584 304 611 q 369 529 336 557 m 111 92 q 211 60 147 60 q 299 78 254 60 q 385 136 344 97 q 442 215 421 172 q 463 296 463 257 q 449 353 463 329 q 417 394 436 378 q 351 447 397 411 l 342 446 q 199 387 260 431 q 106 287 138 343 q 75 179 75 231 q 111 92 75 122 z "},"9":{"ha":833,"x_min":0,"x_max":640,"o":"m 161 -17 q 44 28 88 -17 q 0 156 0 72 q 7 228 0 203 q 14 256 14 254 q 27 275 17 268 q 50 282 38 282 q 81 267 69 282 q 86 235 92 251 q 75 156 75 194 q 93 85 75 108 q 161 58 115 58 q 342 160 247 58 q 501 404 438 261 q 565 657 565 547 q 542 751 565 719 q 469 782 519 782 q 337 730 396 782 q 245 603 278 678 q 213 465 213 528 q 226 406 213 428 q 265 383 239 383 q 396 478 339 383 q 428 543 415 510 q 442 581 442 576 q 458 603 444 596 q 488 608 472 611 q 510 590 503 604 q 514 563 518 576 q 503 526 514 561 q 461 439 492 490 q 372 342 422 375 q 265 308 322 308 q 169 352 201 308 q 138 467 138 396 q 180 642 138 550 q 299 795 222 733 q 469 857 375 857 q 601 797 557 857 q 640 656 640 747 q 599 445 640 561 q 488 225 557 329 q 342 58 419 121 q 161 -17 250 -17 z "}," ":{"ha":556,"x_min":0,"x_max":0,"o":""},"A":{"ha":1057,"x_min":0,"x_max":1403,"o":"m 276 -17 q 135 24 199 -17 q 36 135 72 65 q 0 288 0 204 q 26 428 0 358 q 139 591 63 525 q 300 657 215 657 q 471 599 411 657 q 531 447 531 540 q 529 419 531 429 q 625 476 576 456 q 736 501 674 496 l 761 543 q 944 826 865 718 q 1129 1013 1022 935 q 1365 1090 1236 1090 q 1383 1085 1376 1090 q 1401 1063 1397 1078 q 1403 1051 1403 1060 q 1399 1033 1403 1042 l 1279 825 q 1065 447 1124 556 l 1092 439 q 1111 425 1104 435 q 1118 403 1118 415 q 1107 376 1118 388 q 1081 364 1096 364 q 1061 369 1075 364 q 1029 379 1047 374 q 946 210 986 300 q 907 76 907 115 q 908 65 907 68 q 910 61 910 61 q 914 60 911 61 q 921 60 917 60 q 959 68 944 60 q 1000 115 974 76 q 1079 244 1026 153 q 1113 264 1090 264 q 1131 260 1122 264 q 1150 225 1150 247 q 1146 207 1150 215 q 1058 64 1089 108 q 996 1 1026 19 q 921 -17 965 -17 q 846 19 869 -17 q 831 76 831 43 q 872 230 831 133 q 981 452 913 326 q 1190 824 1050 578 l 1294 1006 q 1124 912 1204 985 q 981 747 1044 839 q 825 503 917 654 q 921 489 875 499 q 942 475 933 486 q 951 450 951 464 q 937 422 951 432 q 904 414 922 411 q 786 428 839 428 q 674 413 719 428 q 583 365 628 397 q 457 258 539 332 q 431 247 446 247 q 403 259 414 247 q 392 286 392 271 q 406 314 392 301 q 440 370 425 332 q 454 447 454 408 q 413 548 454 515 q 300 581 372 581 q 197 540 250 581 q 110 431 144 499 q 76 286 76 364 q 101 174 76 226 q 172 91 126 122 q 276 60 217 60 q 478 147 388 60 q 658 375 568 233 q 692 393 669 393 q 711 388 701 393 q 728 356 728 378 q 722 335 728 344 q 515 79 619 175 q 276 -17 410 -17 z "},"B":{"ha":833,"x_min":0,"x_max":893,"o":"m 285 -33 q 128 2 193 -33 q 32 96 64 38 q 0 222 0 154 q 45 377 0 304 q 172 485 90 450 q 294 511 229 511 q 397 489 351 511 l 628 899 q 661 918 639 918 q 681 913 671 918 q 700 881 700 901 q 694 861 700 868 l 461 447 q 516 371 497 414 q 535 281 535 328 q 528 229 535 257 q 511 207 525 215 q 482 201 497 199 q 458 219 467 206 q 454 247 450 232 q 458 279 458 264 q 440 350 458 317 q 390 406 422 383 l 389 407 q 300 433 350 433 q 180 403 231 433 q 103 324 129 372 q 76 222 76 275 q 131 94 76 144 q 285 43 185 43 q 522 102 417 43 q 685 248 626 161 q 743 411 743 335 q 704 504 743 474 q 596 535 665 535 q 569 546 581 535 q 557 572 557 557 q 569 600 557 589 q 596 611 581 611 q 706 651 654 611 q 787 752 757 692 q 817 871 817 813 q 781 971 817 935 q 653 1014 738 1014 q 499 972 572 1014 q 382 865 426 929 q 338 740 338 801 q 374 653 338 689 q 385 626 385 643 q 374 600 385 610 q 347 589 363 589 q 319 600 333 589 q 261 740 261 658 q 316 903 261 821 q 461 1038 371 985 q 653 1090 551 1090 q 835 1025 769 1090 q 893 871 893 965 q 849 706 893 789 q 733 576 804 624 q 798 507 776 550 q 819 411 819 464 q 751 210 819 314 q 560 36 683 106 q 285 -33 438 -33 m 240 97 q 213 108 224 97 q 203 135 203 119 q 207 154 203 146 l 331 371 q 363 390 342 390 q 382 385 375 390 q 401 353 401 374 q 396 333 401 340 l 274 117 q 240 97 263 97 z "},"C":{"ha":479,"x_min":0,"x_max":796,"o":"m 178 -79 q 39 -14 85 -79 q 0 140 0 40 q 58 425 0 263 q 208 739 115 588 q 400 981 301 890 q 624 1090 521 1090 q 751 1050 707 1090 q 796 943 796 1010 q 763 821 796 886 q 678 715 729 757 q 576 674 626 674 q 497 707 531 674 q 486 735 486 721 q 497 761 486 750 q 525 772 508 772 q 551 761 542 772 q 578 750 563 750 q 639 781 606 750 q 696 858 672 813 q 719 940 719 903 q 717 965 719 957 q 624 1014 704 1014 q 455 928 550 1014 q 269 692 360 842 q 129 397 182 549 q 76 139 76 244 q 101 31 76 65 q 178 -3 126 -3 q 295 33 232 -3 q 414 127 358 69 q 503 244 469 185 q 536 264 514 264 q 564 253 554 264 q 574 226 574 242 q 569 208 574 217 q 468 72 532 139 q 327 -37 404 6 q 178 -79 250 -79 z "},"D":{"ha":833,"x_min":0,"x_max":950,"o":"m 285 -33 q 128 2 192 -33 q 32 96 64 38 q 0 221 0 154 q 35 359 0 293 q 139 466 71 425 q 299 507 207 507 q 393 488 347 507 l 625 900 q 658 918 635 918 q 686 907 675 918 q 697 882 697 896 q 692 863 697 869 l 457 446 q 513 369 493 414 q 532 278 532 325 q 526 226 532 249 q 510 203 524 211 q 481 199 496 194 q 457 215 465 201 q 453 244 449 229 q 457 278 457 261 q 436 352 457 317 q 378 409 415 388 q 299 431 342 431 q 179 400 229 431 q 103 322 129 369 q 76 221 76 274 q 131 93 76 143 q 285 43 185 43 q 576 160 440 43 q 792 447 711 276 q 874 765 874 618 q 821 946 874 881 q 650 1015 764 1015 q 499 972 571 1015 q 382 864 426 929 q 338 738 338 799 q 372 649 338 683 q 383 622 383 638 q 373 595 383 607 q 346 583 363 583 q 318 596 331 583 q 261 736 261 653 q 316 901 261 818 q 460 1038 371 985 q 650 1092 550 1092 q 872 1004 794 1092 q 950 765 950 917 q 859 409 950 597 q 615 94 768 221 q 285 -33 461 -33 m 219 103 q 200 135 200 114 q 206 154 200 147 l 326 369 q 358 389 338 389 q 378 383 371 389 q 397 350 397 372 q 393 332 397 340 l 272 117 q 258 102 267 107 q 239 97 249 97 q 219 103 226 97 z "},"E":{"ha":578,"x_min":0,"x_max":857,"o":"m 224 -79 q 58 -18 115 -79 q 0 139 0 43 q 40 305 0 219 q 159 464 81 390 q 346 582 238 538 q 311 669 311 617 q 351 803 311 731 q 456 942 392 876 q 585 1046 519 1007 q 721 1090 658 1090 q 820 1055 783 1090 q 857 964 857 1019 q 833 876 857 919 q 766 806 808 833 q 672 779 724 779 q 644 790 656 779 q 633 818 633 801 q 644 844 633 833 q 672 856 656 856 q 728 873 704 856 q 767 915 753 890 q 781 964 781 940 q 721 1014 781 1014 q 585 955 664 1014 q 449 815 507 896 q 388 674 390 733 q 401 635 388 650 q 456 615 414 619 q 603 629 524 629 q 629 618 618 629 q 640 592 640 607 q 629 565 640 576 q 603 553 618 553 q 392 517 492 553 q 214 410 292 481 q 113 277 150 351 q 75 138 75 203 q 113 35 75 74 q 224 -3 150 -3 q 432 63 328 -3 q 600 244 536 128 q 635 264 613 264 q 662 253 651 264 q 672 228 672 242 q 667 208 672 215 q 472 -3 593 72 q 224 -79 350 -79 z "},"F":{"ha":833,"x_min":0,"x_max":1618,"o":"m 276 -17 q 134 24 197 -17 q 35 135 71 65 q 0 286 0 206 q 44 468 0 382 q 158 606 88 554 q 300 657 228 657 q 453 610 394 657 q 525 489 513 564 q 775 569 629 574 l 940 861 l 999 965 q 767 989 861 994 q 716 988 764 989 q 619 942 668 986 q 590 897 600 922 q 579 849 579 872 q 596 794 579 815 q 643 772 613 772 q 713 799 692 772 q 740 854 735 825 q 756 878 743 869 q 785 885 769 888 q 810 869 800 883 q 817 840 819 856 q 759 735 806 775 q 643 696 713 696 q 540 740 578 696 q 503 849 503 785 q 531 952 503 903 q 617 1033 560 1001 q 757 1065 674 1065 l 758 1065 q 797 1067 771 1067 q 922 1057 861 1067 q 1082 1026 983 1047 q 1221 999 1164 1008 q 1331 989 1278 989 q 1556 1061 1463 989 q 1579 1069 1567 1069 q 1610 1054 1597 1069 q 1618 1031 1618 1044 q 1603 1000 1618 1013 q 1335 911 1488 911 q 1223 920 1278 911 q 1078 949 1168 929 l 858 561 q 946 543 892 557 q 1063 525 1028 525 q 1086 526 1079 525 q 1115 519 1101 529 q 1131 494 1128 510 q 1124 466 1133 479 q 1099 450 1114 453 q 1065 447 1076 447 q 929 468 1021 447 q 838 487 876 481 q 761 493 799 493 q 628 464 690 493 q 510 364 565 435 q 468 307 493 329 q 442 297 458 297 q 418 306 429 297 q 404 335 404 315 q 410 356 404 346 l 443 403 q 451 453 451 426 q 415 543 451 506 q 300 581 378 581 q 224 558 264 581 q 151 496 185 536 q 96 397 115 451 q 76 288 76 343 q 132 126 76 190 q 276 60 189 60 q 440 108 367 60 q 576 240 514 157 q 710 453 638 324 q 742 472 721 472 q 761 467 754 472 q 781 433 781 456 q 776 415 781 424 q 634 190 700 279 q 479 42 568 101 q 276 -17 390 -17 z "},"G":{"ha":639,"x_min":0,"x_max":796,"o":"m 464 -172 q 438 -161 449 -172 q 390 -36 390 -114 q 393 7 390 -7 q 178 -79 282 -79 q 97 -62 133 -79 q 39 -14 61 -44 q 0 140 0 40 q 58 426 0 264 q 209 740 117 589 q 400 981 301 890 q 624 1090 521 1090 q 751 1050 707 1090 q 796 943 796 1010 q 763 821 796 886 q 678 715 729 757 q 576 674 626 674 q 497 708 532 674 q 486 735 486 719 q 497 761 486 750 q 525 772 508 772 q 551 761 542 772 q 576 750 563 750 q 611 761 593 750 q 657 800 635 775 q 694 856 679 825 q 719 942 719 901 q 717 965 719 958 q 624 1014 704 1014 q 456 928 551 1014 q 269 693 360 842 q 128 396 181 547 q 75 139 75 244 q 101 31 75 67 q 178 -3 126 -3 q 344 65 254 -3 q 490 222 435 133 l 622 456 q 625 467 625 464 q 617 485 625 478 q 599 492 610 493 q 435 443 507 486 q 311 315 364 400 q 278 297 300 297 q 258 303 268 297 q 240 336 240 314 q 246 356 240 346 q 594 568 374 556 q 670 540 639 571 q 701 467 701 510 q 689 418 701 442 l 653 354 q 499 83 533 146 q 471 4 479 43 q 465 -39 465 -26 q 492 -107 465 -81 q 503 -133 503 -121 q 492 -161 503 -150 q 464 -172 481 -172 z "},"H":{"ha":1197,"x_min":0,"x_max":1544,"o":"m 1064 -17 q 986 22 1010 -17 q 974 76 974 43 q 1013 228 974 133 q 1117 440 1053 322 q 1313 789 1181 557 q 1474 1071 1397 935 q 1506 1090 1485 1090 q 1525 1085 1518 1090 q 1544 1051 1544 1074 q 1540 1033 1544 1042 l 1385 760 q 1173 383 1244 515 q 1069 163 1101 250 q 1049 76 1049 106 q 1050 66 1049 69 q 1051 61 1051 63 q 1055 60 1053 61 q 1064 60 1057 60 q 1102 68 1088 60 q 1143 115 1117 76 q 1221 244 1169 154 q 1235 259 1226 254 q 1254 264 1244 264 q 1274 260 1263 264 q 1292 226 1292 250 q 1288 207 1292 218 q 1201 64 1232 108 q 1139 1 1169 19 q 1064 -17 1108 -17 m 276 -17 q 134 24 197 -17 q 35 135 71 65 q 0 286 0 206 q 44 469 0 383 q 157 606 88 554 q 300 657 226 657 q 461 604 401 657 q 528 469 521 551 q 754 532 624 531 l 779 575 l 994 956 q 861 975 954 960 q 760 988 789 988 q 626 946 674 988 q 579 847 579 904 q 596 793 579 815 q 642 771 613 771 q 713 797 692 771 q 740 853 735 824 q 756 878 743 868 q 785 885 769 888 q 809 869 800 882 q 815 840 818 856 q 758 735 804 775 q 642 694 711 694 q 538 743 579 694 q 503 847 503 783 q 531 951 503 901 q 618 1033 560 1001 q 760 1064 676 1064 q 826 1058 788 1064 q 875 1050 865 1051 q 1015 1031 979 1032 q 1060 1029 1050 1031 q 1088 1015 1078 1028 q 1096 985 1099 1001 q 1043 888 1094 979 q 839 526 992 796 q 948 509 892 521 q 1019 494 1004 497 q 1061 485 1033 490 q 1084 472 1075 483 q 1093 447 1093 461 q 1079 418 1093 429 q 1047 410 1065 407 l 985 424 q 861 447 914 439 q 758 456 808 456 q 499 344 597 456 q 468 307 485 322 q 443 297 456 297 q 417 307 432 297 q 404 336 404 318 q 411 358 404 347 l 436 389 q 451 454 451 417 q 415 543 451 506 q 300 581 378 581 q 197 540 250 581 q 110 431 144 499 q 76 286 76 364 q 101 174 76 226 q 172 91 126 122 q 276 60 217 60 q 431 103 361 60 q 560 222 501 146 q 688 414 619 297 q 719 432 697 432 q 739 428 731 432 q 758 394 758 417 q 753 375 758 382 q 619 172 683 254 q 469 36 554 89 q 276 -17 383 -17 z "},"I":{"ha":444,"x_min":0,"x_max":707,"o":"m 179 -17 q 152 -6 163 -17 q 142 21 142 6 q 146 40 142 32 l 596 836 q 620 891 610 861 q 631 944 631 921 q 625 969 631 960 q 567 989 613 989 q 401 919 481 989 q 260 752 322 849 q 113 504 197 656 q 90 465 100 483 q 71 431 81 446 q 38 411 60 411 q 19 415 28 411 q 5 430 10 421 q 0 449 0 439 q 6 468 0 461 l 44 539 q 205 808 136 704 q 367 989 274 913 q 567 1065 460 1065 q 669 1034 632 1065 q 707 944 707 1003 q 693 868 707 908 q 668 809 685 840 q 535 572 651 778 q 213 3 418 367 q 179 -17 201 -17 z "},"J":{"ha":764,"x_min":0,"x_max":1097,"o":"m 276 -17 q 134 24 197 -17 q 35 135 71 65 q 0 286 0 206 q 44 468 0 382 q 158 606 88 554 q 300 657 228 657 q 428 628 376 657 q 504 552 479 599 q 529 453 529 506 q 513 372 529 410 q 468 307 497 333 q 443 297 458 297 q 414 310 424 297 q 404 335 404 319 q 417 364 404 354 q 442 403 432 378 q 451 454 451 428 q 415 544 451 507 q 300 581 378 581 q 197 540 250 581 q 110 431 144 499 q 76 286 76 364 q 101 174 76 226 q 172 91 126 122 q 276 60 217 60 q 449 114 372 60 q 585 252 526 168 q 724 476 644 336 q 994 956 839 685 q 861 975 954 960 q 760 988 789 988 q 626 946 674 988 q 579 847 579 904 q 596 793 579 815 q 642 771 613 771 q 713 797 692 771 q 740 853 735 824 q 756 878 743 868 q 785 885 769 888 q 809 869 800 882 q 815 840 818 856 q 758 735 804 775 q 642 694 711 694 q 540 740 578 694 q 503 849 503 785 q 519 926 503 888 q 567 996 535 964 q 644 1044 596 1024 q 760 1064 692 1064 q 875 1050 789 1064 q 974 1035 933 1040 q 1058 1029 1015 1029 q 1086 1017 1075 1029 q 1096 988 1097 1004 q 1078 951 1094 981 q 993 798 1063 921 q 790 439 924 675 q 643 201 707 292 q 488 47 579 111 q 276 -17 396 -17 z "},"K":{"ha":1088,"x_min":0,"x_max":1601,"o":"m 276 -17 q 134 24 197 -17 q 35 135 71 65 q 0 286 0 206 q 44 469 0 383 q 157 606 88 554 q 300 657 226 657 q 428 628 376 657 q 504 552 479 599 q 529 453 529 506 q 513 372 529 410 q 468 307 497 333 q 443 297 458 297 q 414 310 424 297 q 404 335 404 319 q 417 364 404 354 q 442 403 432 378 q 451 454 451 428 q 415 544 451 507 q 300 581 378 581 q 224 558 264 581 q 151 496 185 536 q 96 397 115 451 q 76 288 76 343 q 132 126 76 190 q 276 60 189 60 q 456 118 376 60 q 595 266 535 176 q 742 511 656 356 l 763 547 l 994 956 q 861 975 954 960 q 760 988 789 988 q 626 946 674 988 q 579 847 579 904 q 596 793 579 815 q 642 771 613 771 q 669 760 658 771 q 681 733 681 749 q 669 706 681 718 q 642 694 658 694 q 542 738 581 694 q 503 847 503 782 q 533 955 503 906 q 622 1034 564 1004 q 760 1064 681 1064 q 875 1050 789 1064 q 1058 1029 982 1031 q 1085 1018 1074 1029 q 1096 992 1096 1007 q 1094 979 1096 983 q 868 579 1096 983 q 1013 627 950 590 q 1122 711 1076 664 q 1226 835 1167 758 q 1311 935 1276 899 q 1392 999 1346 972 q 1493 1025 1438 1025 q 1575 1011 1533 1025 q 1594 997 1588 1007 q 1601 975 1601 988 q 1590 948 1601 958 q 1564 938 1579 938 q 1551 939 1556 938 q 1494 949 1524 949 q 1411 921 1449 949 q 1358 874 1383 901 q 1285 788 1333 847 q 1139 624 1206 688 q 976 528 1072 561 q 1026 410 1026 485 q 1018 340 1026 376 q 982 244 1011 313 q 938 119 947 158 q 931 74 931 92 q 931 65 931 67 q 932 61 932 63 q 935 60 933 61 q 944 60 938 60 q 983 68 968 60 q 1024 115 997 76 q 1101 244 1050 154 q 1136 264 1113 264 q 1154 260 1146 264 q 1174 226 1174 249 q 1168 207 1174 217 q 1081 64 1113 108 q 1020 1 1050 19 q 944 -17 990 -17 q 869 18 894 -17 q 854 75 854 42 q 867 148 854 108 q 906 253 879 188 q 940 345 928 308 q 951 411 951 382 q 938 458 951 440 q 822 497 908 494 l 803 463 q 649 210 715 306 q 490 49 583 115 q 276 -17 397 -17 z "},"L":{"ha":833,"x_min":0,"x_max":1308,"o":"m 1208 -224 q 860 -158 1053 -224 q 483 4 668 -92 q 275 63 371 63 q 170 42 215 63 q 101 -10 125 21 q 76 -72 76 -42 q 107 -126 76 -107 q 192 -144 138 -144 q 415 -14 293 -144 q 442 -3 425 -3 q 469 -12 458 -3 q 481 -40 481 -24 q 471 -67 481 -57 q 192 -221 326 -221 q 74 -195 122 -221 q 8 -122 26 -169 q 0 -74 0 -100 q 35 27 0 -22 q 133 108 69 76 q 278 139 196 139 q 496 83 372 139 q 640 301 569 181 q 804 599 710 422 q 960 880 901 782 q 1074 1034 1019 978 q 1181 1090 1128 1090 q 1257 1049 1228 1090 q 1278 964 1278 1015 q 1235 800 1278 876 q 1203 781 1224 781 q 1183 786 1190 781 q 1164 819 1164 797 q 1168 838 1164 829 q 1193 899 1185 865 q 1201 961 1201 933 q 1196 999 1201 985 q 1181 1014 1190 1014 q 1136 988 1165 1014 q 1058 890 1107 963 q 978 759 1019 833 q 872 564 936 685 q 702 258 767 369 q 565 49 638 146 q 1082 -135 856 -96 q 1213 -147 1157 -147 q 1249 -146 1238 -147 q 1260 -144 1260 -144 q 1288 -149 1274 -140 q 1304 -174 1301 -158 q 1300 -201 1308 -187 q 1276 -218 1292 -215 q 1208 -224 1260 -224 z "},"M":{"ha":1397,"x_min":0,"x_max":1744,"o":"m 276 -17 q 134 24 197 -17 q 35 135 71 65 q 0 286 0 206 q 44 469 0 383 q 157 606 88 554 q 300 657 226 657 q 428 628 376 657 q 504 552 479 599 q 529 453 529 506 q 513 372 529 410 q 468 307 497 333 q 443 297 458 297 q 414 310 424 297 q 404 335 404 319 q 417 364 404 354 q 442 403 432 378 q 451 454 451 428 q 415 544 451 507 q 300 581 378 581 q 224 558 264 581 q 151 496 185 536 q 96 397 115 451 q 76 288 76 343 q 132 126 76 190 q 276 60 189 60 q 436 105 364 60 q 569 231 508 150 q 703 440 631 313 l 744 514 q 1025 1010 915 819 q 1058 1029 1035 1029 q 1090 1011 1081 1029 q 1096 992 1096 1001 q 1053 709 1096 979 q 978 294 1010 439 q 1108 468 1074 424 q 1370 812 1272 690 q 1555 1011 1468 933 q 1706 1090 1642 1089 q 1733 1079 1722 1090 q 1744 1051 1744 1068 q 1740 1033 1744 1042 q 1596 782 1668 903 q 1358 357 1439 508 q 1256 119 1278 206 q 1249 78 1249 96 q 1250 66 1249 69 q 1251 61 1251 63 q 1256 60 1253 61 q 1263 60 1258 60 q 1301 68 1286 60 q 1342 115 1315 76 q 1421 244 1368 153 q 1454 264 1432 264 q 1472 260 1464 264 q 1492 225 1492 247 q 1488 207 1492 215 q 1399 64 1431 108 q 1338 1 1368 19 q 1263 -17 1307 -17 q 1185 24 1208 -17 q 1172 76 1172 44 q 1213 228 1172 133 q 1320 447 1253 324 q 1526 813 1388 569 l 1610 958 q 1428 760 1531 889 q 1157 406 1325 632 q 913 83 1007 204 q 875 58 897 58 q 847 70 858 58 q 836 97 836 82 q 844 121 836 111 q 989 792 893 182 q 872 586 954 732 l 790 440 q 642 201 707 293 q 486 47 578 110 q 276 -17 394 -17 z "},"N":{"ha":1189,"x_min":0,"x_max":1744,"o":"m 276 -17 q 165 8 217 -17 q 74 76 113 32 q 19 173 38 119 q 0 286 0 226 q 44 468 0 382 q 158 606 88 554 q 300 657 228 657 q 428 628 376 657 q 503 552 479 599 q 528 453 528 506 q 513 372 528 410 q 468 307 497 333 q 443 297 458 297 q 414 310 424 297 q 404 335 404 319 q 417 364 404 354 q 442 403 432 378 q 451 454 451 428 q 415 544 451 507 q 300 581 378 581 q 197 540 250 581 q 110 431 144 499 q 76 286 76 364 q 101 174 76 226 q 172 91 126 122 q 276 60 217 60 q 451 115 374 60 q 586 254 528 171 q 724 478 644 338 q 1025 1010 922 832 q 1058 1029 1036 1029 q 1076 1025 1068 1029 q 1096 990 1096 1014 q 1094 979 1096 983 q 1083 768 1090 950 q 1074 564 1081 714 q 1058 306 1067 414 q 1056 268 1058 293 q 1453 919 1278 713 q 1589 1048 1526 1006 q 1707 1090 1651 1090 q 1733 1078 1722 1090 q 1744 1051 1744 1067 q 1733 1025 1744 1036 q 1707 1014 1722 1014 q 1511 871 1632 1014 q 1294 551 1404 743 q 1097 179 1185 360 q 1015 4 1010 -1 q 999 -12 1010 -7 q 976 -17 989 -18 q 953 -5 963 -15 q 943 19 943 6 q 947 36 943 28 q 948 38 947 36 q 950 43 949 40 q 1006 760 981 126 l 1008 828 l 790 440 q 643 202 707 293 q 488 47 579 111 q 276 -17 396 -17 z "},"O":{"ha":833,"x_min":0,"x_max":1317,"o":"m 318 -15 q 164 49 221 -15 q 96 260 96 124 q 99 313 96 276 q 110 337 100 326 q 136 347 121 347 q 163 336 151 347 q 175 310 175 325 q 174 293 175 307 q 172 260 172 279 q 181 183 172 217 q 318 61 208 61 q 518 126 415 61 q 710 295 621 190 q 854 517 799 400 q 648 433 732 465 q 458 372 564 400 q 263 344 351 344 q 22 463 89 344 q 0 554 0 503 q 98 792 0 665 q 349 1004 196 918 q 653 1090 501 1090 q 910 1008 821 1090 q 1000 783 1000 926 q 982 647 1000 718 q 1125 669 1068 669 q 1304 604 1231 669 q 1317 576 1317 594 q 1307 550 1317 561 q 1279 538 1297 538 q 1253 549 1264 538 q 1124 593 1204 593 q 954 558 1058 593 q 799 284 901 417 q 569 68 697 151 q 318 -15 442 -15 m 200 432 q 292 422 243 422 q 509 464 385 422 q 894 617 633 506 q 925 783 925 713 q 857 953 925 893 q 653 1014 789 1014 q 385 938 519 1014 q 163 752 250 861 q 76 557 76 643 q 129 460 76 492 q 249 697 169 589 q 439 869 328 804 q 679 933 550 933 q 706 922 694 933 q 718 896 718 911 q 706 869 718 881 q 679 857 694 857 q 467 797 564 857 q 303 640 371 736 q 200 432 235 543 z "},"P":{"ha":1097,"x_min":0,"x_max":1310,"o":"m 275 -17 q 134 24 197 -17 q 35 135 71 65 q 0 286 0 204 q 44 468 0 382 q 158 606 88 554 q 300 657 228 657 q 428 628 376 657 q 503 552 479 599 q 528 453 528 506 q 513 372 528 410 q 468 307 497 333 q 443 297 458 297 q 414 310 424 297 q 404 335 404 319 q 417 364 404 354 q 442 403 432 378 q 451 454 451 428 q 415 544 451 507 q 300 581 378 581 q 197 540 250 581 q 110 431 144 499 q 76 286 76 364 q 101 174 76 226 q 172 91 126 122 q 275 60 217 60 q 438 107 365 60 q 572 235 511 154 q 701 440 632 315 l 961 899 q 994 918 972 918 q 1021 909 1010 918 q 1033 883 1032 900 q 1028 861 1033 871 l 779 421 q 779 406 775 411 q 807 389 786 396 q 858 382 828 382 q 990 416 919 382 q 1122 526 1060 450 q 1202 664 1169 585 q 1235 814 1235 743 q 1176 958 1235 903 q 986 1014 1117 1014 q 834 972 907 1014 q 716 865 761 929 q 671 742 671 801 q 707 654 671 689 q 718 626 718 644 q 707 600 718 610 q 681 589 696 589 q 653 600 667 589 q 594 740 594 658 q 649 903 594 821 q 794 1038 704 985 q 986 1090 885 1090 q 1227 1014 1144 1090 q 1310 814 1310 938 q 1276 642 1310 731 q 1182 478 1242 553 q 1023 347 1108 389 q 858 304 938 304 q 787 315 819 304 q 733 342 754 325 q 606 156 668 232 q 461 31 543 79 q 276 -17 379 -17 l 275 -17 z "},"Q":{"ha":833,"x_min":-37,"x_max":1286,"o":"m 1247 -193 q 858 -148 1024 -193 q 588 -43 692 -103 q 369 103 485 17 q 247 186 290 161 q 160 211 204 211 q 67 181 100 211 q 38 124 38 154 q 63 78 38 96 q 138 60 88 60 q 326 89 235 60 q 339 90 331 90 q 361 83 351 90 q 375 64 371 76 q 372 35 379 49 q 350 17 364 21 q 138 -17 246 -17 q 8 24 54 -17 q -37 122 -37 64 q -24 183 -37 153 q 17 238 -10 214 q 160 288 69 288 q 274 258 221 288 q 417 163 328 229 l 446 142 q 669 323 569 210 q 829 569 768 436 q 881 713 860 638 q 901 854 901 788 q 889 940 901 901 q 761 1035 860 1035 q 536 935 650 1035 q 347 697 422 836 q 272 451 272 557 q 301 360 272 389 q 385 332 329 332 q 535 419 461 332 q 666 624 610 506 q 751 839 722 742 q 765 858 756 851 q 788 865 775 865 q 800 864 796 865 q 822 846 814 860 q 825 817 829 832 q 788 711 819 794 q 710 543 756 628 q 385 256 558 256 q 240 313 290 256 q 196 450 196 363 q 244 658 196 543 q 374 875 293 772 q 547 1039 456 978 q 656 1092 600 1074 q 763 1111 711 1111 q 886 1074 833 1111 q 963 964 939 1038 q 978 856 978 914 q 920 588 978 733 q 757 309 863 442 q 514 92 651 176 q 842 -65 667 -12 q 1247 -117 1018 -117 q 1274 -128 1263 -117 q 1286 -156 1286 -140 q 1274 -182 1286 -171 q 1247 -193 1263 -193 z "},"R":{"ha":1069,"x_min":0,"x_max":1258,"o":"m 275 -17 q 134 24 197 -17 q 35 135 71 65 q 0 286 0 204 q 44 468 0 382 q 158 606 88 554 q 300 657 228 657 q 428 628 376 657 q 504 552 479 599 q 529 453 529 506 q 513 372 529 410 q 468 307 497 333 q 443 297 458 297 q 414 310 424 297 q 404 335 404 319 q 417 364 404 354 q 442 403 432 378 q 451 454 451 428 q 415 544 451 507 q 300 581 378 581 q 197 540 250 581 q 110 431 144 499 q 76 286 76 364 q 101 174 76 226 q 172 91 126 122 q 275 60 217 60 q 453 118 375 60 q 592 264 532 176 q 742 511 651 351 l 774 568 q 832 669 811 635 l 961 899 q 994 918 971 918 q 1020 909 1008 918 q 1033 885 1032 900 q 1026 858 1035 875 q 978 772 1017 840 q 865 574 939 704 q 919 568 892 568 q 1057 609 997 568 q 1149 713 1117 650 q 1182 839 1182 775 q 1167 917 1182 885 q 1100 989 1146 964 q 986 1014 1054 1014 q 834 972 907 1014 q 716 865 761 929 q 671 742 671 801 q 707 654 671 689 q 718 626 718 644 q 707 600 718 610 q 681 589 696 589 q 653 600 667 589 q 594 740 594 658 q 663 922 594 832 q 836 1058 731 1013 q 990 1090 910 1090 q 1146 1051 1081 1090 q 1230 963 1201 1018 q 1258 840 1258 907 q 1227 697 1258 768 q 1137 574 1196 626 q 1000 501 1078 521 q 1028 410 1028 463 q 1018 340 1028 385 q 982 244 1011 313 q 938 119 947 158 q 931 74 931 92 q 931 65 931 67 q 932 61 932 63 q 935 60 933 61 q 944 60 938 60 q 983 68 968 60 q 1024 115 997 76 q 1101 244 1050 154 q 1136 264 1113 264 q 1154 260 1146 264 q 1174 226 1174 249 q 1168 207 1174 217 q 1081 64 1113 108 q 1020 1 1050 19 q 944 -17 990 -17 q 869 18 894 -17 q 854 75 854 39 q 867 153 854 113 q 910 269 881 194 q 943 358 935 328 q 951 411 951 388 q 938 458 951 440 q 822 497 908 494 l 800 457 q 647 208 713 301 q 489 49 582 114 q 275 -17 396 -17 z "},"S":{"ha":722,"x_min":0,"x_max":763,"o":"m 282 -17 q 170 8 222 -17 q 78 76 118 32 q 0 288 0 164 q 42 464 0 378 q 153 603 83 550 q 300 657 222 657 q 474 596 417 657 q 531 444 531 535 q 510 339 531 390 q 456 257 489 288 q 431 247 446 247 q 401 260 413 247 q 392 285 392 269 q 404 314 392 304 q 440 370 425 332 q 454 447 454 408 q 444 503 454 479 q 300 581 415 581 q 224 558 264 581 q 151 496 185 536 q 96 399 115 453 q 76 290 76 346 q 135 126 76 193 q 282 60 194 60 q 467 103 389 60 q 585 224 544 146 q 626 404 626 301 q 601 551 626 481 q 529 711 575 621 q 478 821 493 782 q 463 896 463 860 q 506 1036 463 982 q 628 1090 549 1090 q 724 1058 686 1090 q 763 975 763 1025 q 747 897 763 929 q 719 854 731 865 q 690 842 710 842 q 665 851 675 842 q 653 881 653 864 q 663 906 653 896 q 677 929 668 911 q 686 975 686 947 q 669 1003 686 993 q 628 1014 651 1014 q 560 981 583 1014 q 539 896 539 951 q 552 841 539 872 q 594 753 565 810 q 674 574 646 653 q 703 404 703 494 q 652 186 703 282 q 506 37 601 90 q 282 -17 411 -17 z "},"T":{"ha":764,"x_min":0,"x_max":1618,"o":"m 276 -17 q 134 24 197 -17 q 35 135 71 65 q 0 286 0 206 q 44 469 0 383 q 157 606 88 554 q 300 657 226 657 q 428 628 376 657 q 504 552 479 599 q 529 453 529 506 q 513 372 529 410 q 468 307 497 333 q 443 297 458 297 q 414 310 424 297 q 404 335 404 319 q 417 364 404 354 q 442 403 432 378 q 451 454 451 428 q 415 544 451 507 q 300 581 378 581 q 197 540 250 581 q 110 431 144 499 q 76 286 76 364 q 101 174 76 226 q 172 91 126 122 q 276 60 217 60 q 398 85 342 60 q 507 163 454 110 q 628 315 571 224 q 840 685 685 407 l 999 965 q 767 989 854 993 l 760 989 q 624 946 669 989 q 579 849 579 903 q 597 793 579 815 q 643 772 614 772 q 713 799 692 772 q 740 854 735 825 q 756 878 743 869 q 785 885 769 888 q 810 869 800 883 q 817 840 819 856 q 759 736 806 776 q 643 696 713 696 q 539 744 576 696 q 503 849 503 789 q 531 951 503 901 q 617 1033 560 1001 q 757 1065 675 1065 l 758 1065 q 797 1067 771 1067 q 922 1057 861 1067 q 1082 1026 983 1047 q 1221 999 1164 1008 q 1332 989 1278 989 q 1556 1061 1463 989 q 1579 1069 1567 1069 q 1610 1054 1597 1069 q 1618 1031 1618 1044 q 1603 1000 1618 1013 q 1335 911 1488 911 q 1223 920 1278 911 q 1078 949 1168 929 q 941 708 1000 813 q 840 529 882 603 l 790 439 q 642 201 707 292 q 486 47 578 110 q 276 -17 394 -17 z "},"U":{"ha":833,"x_min":0,"x_max":1181,"o":"m 713 -17 q 636 24 658 -17 q 622 79 622 49 q 636 160 622 108 q 469 26 547 69 q 329 -18 390 -18 q 231 24 267 -18 q 196 135 196 65 q 300 438 196 251 l 525 836 q 560 944 560 906 q 554 969 560 960 q 496 989 542 989 q 340 926 413 989 q 199 767 267 863 q 111 608 146 692 q 76 475 76 524 q 82 444 76 454 q 108 433 86 433 q 135 422 124 433 q 146 394 146 410 q 135 368 146 379 q 108 357 124 357 q 31 385 61 357 q 0 475 0 414 q 28 607 0 529 q 145 824 69 718 q 294 988 221 929 q 496 1065 393 1065 q 597 1033 560 1065 q 635 944 635 1001 q 621 868 635 908 q 596 808 611 838 q 503 643 581 779 l 365 400 q 292 238 313 304 q 272 135 272 172 q 300 65 272 81 q 329 58 314 58 q 455 108 378 58 q 627 263 532 157 q 817 529 722 369 l 1108 1046 q 1142 1065 1119 1065 q 1161 1060 1154 1065 q 1181 1028 1181 1049 q 1175 1008 1181 1015 q 1089 856 1129 928 q 1011 719 1049 783 q 806 353 843 422 q 742 224 768 283 q 699 79 699 124 q 700 65 699 69 q 701 61 701 61 q 713 60 703 60 q 751 68 736 60 q 792 115 765 76 q 869 244 818 154 q 884 259 875 254 q 903 264 893 264 q 922 260 913 264 q 942 226 942 249 q 936 207 942 217 q 849 64 881 108 q 788 1 818 19 q 713 -17 757 -17 z "},"V":{"ha":833,"x_min":0,"x_max":1369,"o":"m 326 -18 q 272 3 297 -18 q 230 66 246 25 q 214 161 214 107 q 300 438 214 286 l 525 838 q 549 892 539 863 q 560 944 560 922 q 554 969 560 960 q 496 989 542 989 q 340 926 413 989 q 199 767 267 863 q 111 606 146 690 q 76 474 76 522 q 82 444 76 454 q 108 433 86 433 q 135 422 124 433 q 146 394 146 410 q 135 368 146 379 q 108 357 124 357 q 14 408 42 357 q 0 474 0 435 q 43 642 0 546 q 136 811 86 739 q 303 994 214 924 q 496 1065 392 1065 q 619 1007 586 1065 q 635 944 635 981 q 619 859 635 901 q 590 797 603 817 l 367 400 q 292 161 292 268 q 303 90 292 118 q 326 58 315 63 q 589 218 453 60 q 701 369 647 286 q 833 583 754 451 q 1004 854 935 754 q 1156 1022 1074 954 q 1331 1090 1239 1090 q 1358 1078 1347 1090 q 1369 1051 1369 1067 q 1358 1025 1369 1036 q 1331 1014 1347 1014 q 1119 876 1233 1014 q 1025 749 1069 818 q 900 544 981 679 q 711 249 789 360 q 535 60 633 138 q 326 -18 438 -18 z "},"W":{"ha":1000,"x_min":0,"x_max":1549,"o":"m 263 -18 q 199 10 225 -18 q 174 94 174 38 q 181 157 174 128 q 300 438 207 276 l 525 836 q 560 944 560 906 q 554 969 560 960 q 496 989 542 989 q 340 926 413 989 q 199 767 267 863 q 111 606 146 690 q 76 474 76 522 q 82 444 76 454 q 108 433 86 433 q 135 422 124 433 q 146 394 146 410 q 135 368 146 379 q 108 357 124 357 q 31 385 61 357 q 0 475 0 414 q 28 607 0 529 q 145 824 69 718 q 294 988 221 929 q 497 1065 393 1065 q 571 1051 539 1065 q 619 1007 604 1033 q 635 944 635 982 q 621 868 635 908 q 599 813 613 840 q 499 635 585 786 l 365 400 q 256 142 276 242 q 250 93 250 114 q 257 60 250 67 l 263 58 q 296 69 274 58 q 399 149 339 90 q 699 568 540 289 l 850 836 q 882 856 861 856 q 901 850 894 856 q 921 818 921 839 q 915 799 921 806 l 696 408 q 585 150 610 256 q 578 97 578 122 q 585 64 578 71 q 605 66 589 61 q 647 88 621 71 q 810 249 718 135 q 894 372 854 304 q 1004 563 935 439 q 1167 840 1099 735 q 1323 1017 1236 944 q 1510 1090 1410 1090 q 1538 1078 1526 1090 q 1549 1051 1549 1067 q 1538 1025 1549 1036 q 1510 1014 1526 1014 q 1358 947 1432 1014 q 1222 784 1283 881 q 1069 525 1160 688 q 958 331 1001 403 q 869 201 915 258 q 708 38 779 88 q 589 -12 638 -12 q 529 12 551 -12 q 503 71 507 36 q 501 94 501 78 q 508 154 501 117 q 263 -18 354 -18 z "},"X":{"ha":868,"x_min":0,"x_max":1243,"o":"m 38 -17 q 11 -6 22 -17 q 0 21 0 6 q 11 48 0 36 q 38 60 22 60 q 181 125 100 60 q 342 282 263 190 q 542 524 422 374 l 594 589 q 633 890 633 789 q 611 994 633 968 q 554 1014 597 1014 q 404 942 488 1014 q 267 783 339 883 q 158 579 196 683 q 135 472 135 518 q 139 444 135 453 q 167 433 146 433 q 193 422 182 433 q 204 394 204 410 q 193 368 204 379 q 167 357 182 357 q 89 385 119 357 q 58 475 58 414 q 86 607 58 529 q 206 827 128 718 q 354 999 283 936 q 554 1090 457 1090 q 671 1043 632 1090 q 710 892 710 999 q 693 711 710 822 q 1035 1038 893 953 q 1204 1090 1128 1090 q 1232 1078 1221 1090 q 1243 1051 1243 1067 q 1232 1025 1243 1036 q 1204 1014 1221 1014 q 1039 949 1129 1014 q 862 789 949 883 q 665 557 775 694 q 636 307 636 406 q 640 236 636 269 q 688 90 650 136 q 746 60 714 60 q 781 69 767 60 q 822 117 796 79 q 899 244 849 156 q 933 264 910 264 q 951 260 943 264 q 971 226 971 249 q 965 207 971 217 q 880 65 911 110 q 819 3 849 21 q 747 -17 790 -15 q 686 -4 718 -19 q 629 42 654 11 q 560 304 560 125 q 568 435 560 354 q 318 143 417 242 q 167 22 235 61 q 38 -17 99 -17 z "},"Y":{"ha":792,"x_min":0,"x_max":1128,"o":"m 192 -221 q 50 -178 100 -221 q 0 -74 0 -136 q 6 -31 0 -49 q 20 -10 10 -18 q 43 -3 31 -3 q 70 -13 60 -3 q 81 -39 81 -24 q 79 -51 81 -47 q 76 -72 76 -62 q 88 -108 76 -93 q 192 -144 115 -144 q 599 239 361 -144 q 418 174 501 174 q 317 209 354 174 q 281 304 281 244 q 322 438 281 365 l 547 836 q 572 890 561 860 q 582 944 582 921 q 576 969 582 960 q 518 989 564 989 q 365 928 443 989 q 228 777 297 875 q 124 579 160 679 q 99 472 99 507 q 104 444 99 454 q 131 433 108 433 q 158 422 146 433 q 169 394 169 410 q 158 368 169 379 q 131 357 146 357 q 53 385 83 357 q 24 474 24 414 q 51 607 24 529 q 167 824 92 718 q 318 988 243 929 q 521 1065 417 1065 q 594 1051 563 1065 q 643 1007 628 1033 q 658 943 658 979 q 644 868 658 908 q 619 808 635 839 q 513 618 603 776 l 389 400 q 357 304 357 342 q 379 258 357 272 q 417 250 396 250 q 542 293 472 250 q 676 410 614 338 q 786 568 738 482 l 1057 1046 q 1089 1065 1068 1065 q 1108 1060 1101 1065 q 1128 1026 1128 1049 q 1124 1008 1128 1017 l 853 531 q 695 249 765 368 q 553 35 625 131 q 378 -149 468 -76 q 192 -221 289 -221 z "},"Z":{"ha":833,"x_min":0,"x_max":1371,"o":"m 194 -224 q 178 -221 189 -224 q 85 -200 125 -219 q 17 -140 42 -181 q 0 -74 0 -110 q 26 15 0 -28 q 126 106 60 71 q 278 139 193 139 q 410 118 346 139 q 493 85 451 104 l 531 138 q 613 266 568 192 q 699 411 657 340 l 717 442 q 870 697 807 596 q 999 878 933 797 q 1060 949 1026 913 q 999 944 1029 944 q 903 952 946 944 q 804 974 860 960 q 726 989 746 989 q 586 940 635 989 q 556 899 567 924 q 546 849 546 874 q 534 822 546 833 q 507 810 522 810 q 481 822 492 810 q 469 849 469 833 q 486 928 469 890 q 533 996 503 967 q 726 1065 603 1065 q 783 1058 751 1065 q 822 1049 815 1050 q 913 1028 875 1035 q 997 1021 951 1021 q 1242 1076 1114 1021 q 1257 1079 1250 1079 q 1333 1090 1297 1090 q 1360 1079 1349 1090 q 1371 1051 1371 1068 q 1360 1025 1371 1036 q 1333 1014 1349 1014 q 1058 831 1207 1014 q 932 653 994 753 q 782 403 869 553 q 594 96 657 188 l 564 50 q 781 -47 682 -8 q 1143 -144 989 -128 q 1207 -147 1169 -147 q 1248 -146 1236 -147 q 1260 -144 1260 -144 l 1258 -144 q 1288 -149 1274 -140 q 1304 -172 1301 -157 q 1299 -201 1308 -187 q 1275 -218 1290 -215 q 1254 -222 1271 -219 q 1210 -224 1238 -224 q 1019 -201 1133 -224 q 753 -118 906 -178 q 526 -17 664 -83 l 489 1 q 376 49 419 35 q 279 63 332 63 q 170 42 222 63 q 92 -25 118 21 q 76 -75 76 -51 q 83 -103 76 -89 q 123 -133 94 -122 q 192 -144 151 -144 q 300 -111 244 -144 q 415 -14 357 -76 q 442 -3 425 -3 q 468 -12 458 -3 q 481 -40 481 -24 q 475 -60 481 -53 l 475 -61 l 471 -67 q 194 -224 328 -224 z "},"a":{"ha":415,"x_min":0,"x_max":508,"o":"m 279 -17 q 196 31 218 -17 q 100 0 151 0 q 22 43 50 0 q 0 128 0 75 q 38 284 0 194 q 145 439 76 374 q 299 504 214 504 q 386 468 354 504 q 419 488 397 488 q 439 482 432 488 q 458 450 458 471 q 453 431 458 438 l 292 144 q 275 115 282 129 q 265 85 268 100 q 264 74 264 81 l 265 63 q 279 60 268 60 q 317 68 303 60 q 359 115 332 76 q 438 244 386 154 q 471 264 449 264 q 489 260 481 264 q 508 226 508 249 q 503 207 508 217 q 416 64 447 108 q 355 1 385 19 q 279 -17 325 -17 m 100 76 q 166 103 138 76 q 229 189 194 131 l 246 218 q 299 313 263 249 q 338 383 335 376 q 340 396 342 390 q 299 428 332 428 q 189 376 240 428 q 107 251 138 324 q 76 126 76 179 q 86 85 76 99 q 100 76 90 76 z "},"b":{"ha":394,"x_min":-28,"x_max":489,"o":"m 161 -12 q 63 4 111 -12 q -3 49 22 15 q -28 124 -28 82 q -12 183 -28 157 l 311 753 q 344 772 322 772 q 363 768 354 772 q 382 733 382 756 q 378 715 382 724 l 257 504 q 283 507 265 507 q 356 473 328 507 q 383 379 383 439 q 326 193 383 296 q 261 88 293 129 q 417 244 353 131 q 451 264 428 264 q 478 253 468 264 q 489 226 489 242 q 483 207 489 217 q 344 48 428 108 q 161 -12 261 -12 m 94 76 q 151 89 128 76 q 200 133 175 101 q 260 229 225 165 q 307 381 307 314 q 301 417 307 404 q 283 431 294 431 q 215 392 258 431 q 124 267 172 353 l 56 146 q 49 122 49 132 q 62 90 49 103 q 94 76 75 76 z "},"c":{"ha":344,"x_min":-6,"x_max":439,"o":"m 151 -17 q 34 21 74 -17 q -6 126 -6 58 q 36 275 -6 183 q 141 435 78 367 q 267 504 204 504 q 356 463 329 504 q 369 413 369 443 q 342 313 369 372 q 328 297 338 303 q 307 292 318 292 q 292 294 296 292 q 269 331 269 306 q 272 346 269 340 q 291 397 288 378 q 290 422 294 417 q 267 428 285 428 q 211 399 244 428 q 144 314 176 367 q 91 209 111 261 q 71 126 71 157 q 88 76 71 92 q 151 60 104 60 q 368 244 261 60 q 401 264 379 264 q 419 260 411 264 q 439 225 439 247 q 435 207 439 215 q 151 -17 306 -17 z "},"d":{"ha":413,"x_min":-1,"x_max":618,"o":"m 278 -17 q 228 -6 250 -17 q 196 29 207 6 q 99 0 151 0 q 21 43 49 0 q -1 128 -1 78 q 51 310 -1 211 q 171 461 103 410 q 285 504 229 504 q 383 465 346 504 l 547 753 q 581 772 558 772 q 599 768 590 772 q 618 735 618 757 q 613 715 618 725 l 278 122 q 265 86 268 104 q 264 63 261 68 q 278 60 267 60 q 316 68 301 60 q 357 115 331 76 q 435 244 383 154 q 469 264 446 264 q 488 260 479 264 q 507 226 507 249 q 501 207 507 217 q 415 64 446 108 q 353 1 383 19 q 278 -17 324 -17 m 99 76 q 178 114 140 76 q 214 167 193 133 q 278 278 235 201 l 340 388 q 322 418 338 408 q 285 428 306 428 q 216 399 253 428 q 146 321 179 371 q 94 219 113 272 q 75 126 75 167 q 85 85 75 99 q 99 76 89 76 z "},"e":{"ha":335,"x_min":-4,"x_max":428,"o":"m 138 -17 q 15 43 51 -17 q -4 121 -4 76 q 54 311 -4 203 q 150 456 106 410 q 263 504 199 504 q 328 478 303 504 q 353 413 353 453 q 320 316 353 367 q 226 229 288 265 q 85 189 165 193 q 72 121 72 150 q 81 82 72 97 q 99 66 88 72 q 138 60 110 60 q 357 244 251 60 q 390 264 368 264 q 408 260 400 264 q 423 245 418 254 q 428 226 428 236 q 424 207 428 218 q 138 -17 297 -17 m 119 271 q 203 306 168 281 q 258 360 239 331 q 276 413 276 390 q 274 425 276 422 q 263 428 271 428 q 224 417 242 428 q 181 373 206 407 q 119 271 156 339 z "},"f":{"ha":318,"x_min":-287,"x_max":411,"o":"m -108 -436 q -158 -474 -132 -461 q -207 -487 -185 -487 q -265 -460 -243 -487 q -287 -382 -287 -432 q -250 -240 -287 -319 q -147 -56 -218 -185 q -42 132 -75 72 q 105 383 61 314 q 183 477 149 451 q 269 503 218 503 q 328 482 307 503 q 350 424 350 461 q 319 326 350 378 q 228 185 282 257 q 119 65 175 113 q 245 128 189 81 q 340 244 301 175 q 372 264 351 264 q 392 258 385 264 q 411 226 411 247 q 406 208 411 215 q 249 39 342 94 q 71 -17 157 -17 q 26 -12 47 -17 q 33 -69 33 -40 q -9 -267 33 -157 q -108 -436 -51 -378 m 19 83 q 146 201 81 119 q 249 355 211 282 q 269 428 288 428 q 221 413 240 428 q 160 330 201 397 q 24 93 118 263 l 19 83 m -106 -135 q -176 -357 -176 -299 q -165 -379 -176 -379 q -141 -369 -154 -379 q -128 -360 -128 -358 q -144 -379 -129 -362 q -69 -263 -103 -333 q -35 -115 -35 -193 q -47 -32 -35 -68 l -128 -175 l -106 -135 z "},"g":{"ha":401,"x_min":-257,"x_max":494,"o":"m 1 -364 q -80 -458 -37 -428 q -161 -487 -122 -487 q -230 -457 -203 -487 q -257 -379 -257 -426 q -233 -293 -257 -336 q -137 -162 -192 -217 q -26 -73 -82 -107 q 113 1 31 -39 q 30 33 58 -1 q 1 128 1 68 q 54 311 1 215 q 160 453 104 404 q 299 503 215 503 q 388 467 353 503 q 402 482 393 476 q 421 488 411 488 q 447 476 438 488 q 457 450 457 465 q 453 431 457 439 q 286 135 306 172 l 250 72 q 350 148 307 107 q 425 244 393 189 q 457 264 436 264 q 476 258 469 264 q 494 226 494 249 q 490 208 494 217 q 366 61 439 117 q 182 -49 293 6 l 1 -364 m 100 76 q 158 94 133 76 q 206 147 182 111 l 250 225 q 342 388 275 267 q 328 419 339 410 q 299 428 318 428 q 205 394 244 428 q 119 275 165 360 q 76 131 76 197 q 85 85 76 101 q 100 76 90 76 m -169 -410 q -125 -397 -156 -418 q -62 -325 -94 -376 l 60 -110 q -74 -204 -19 -153 q -168 -329 -128 -256 q -182 -379 -182 -356 q -169 -410 -182 -403 z "},"h":{"ha":413,"x_min":-89,"x_max":506,"o":"m 272 -17 q 208 13 233 -17 q 188 68 188 38 q 203 135 188 97 q 256 238 219 172 q 292 308 260 246 q 325 404 325 369 q 322 417 325 411 q 278 428 317 428 q 221 397 256 428 q 151 313 185 365 q 40 121 118 261 l -17 19 q -49 0 -28 0 q -77 13 -65 0 q -89 40 -89 25 q -85 57 -89 49 l 311 753 q 326 767 317 763 q 344 772 335 772 q 363 768 354 772 q 382 735 382 757 q 376 715 382 725 l 256 501 q 278 504 272 504 q 388 456 358 504 q 400 406 400 436 q 381 320 400 367 q 322 201 361 274 q 280 118 296 151 q 264 67 264 85 q 274 60 267 60 q 337 103 294 60 q 435 244 379 147 q 468 264 446 264 q 486 260 478 264 q 501 245 496 254 q 506 226 506 236 q 501 207 506 218 q 272 -17 375 -17 z "},"i":{"ha":178,"x_min":-49,"x_max":281,"o":"m 224 521 q 204 554 204 533 q 210 575 204 565 q 242 594 221 594 q 261 589 254 594 q 281 556 281 578 q 276 538 281 546 q 242 515 264 515 q 224 521 235 515 m 43 -17 q -24 7 0 -17 q -49 71 -49 31 q -42 117 -49 97 q -10 187 -36 138 q 61 313 17 236 l 150 468 q 183 488 161 488 q 203 482 193 488 q 221 450 221 472 q 217 431 221 439 l 122 264 q 60 156 83 197 q 33 100 38 114 q 28 71 28 86 q 28 65 28 67 q 29 61 29 63 q 33 60 31 61 q 43 60 36 60 q 80 70 64 60 q 124 119 96 81 q 200 244 151 158 q 215 259 206 254 q 233 264 224 264 q 253 260 243 264 q 272 226 272 249 q 267 207 272 217 q 184 70 215 115 q 120 4 153 25 q 43 -17 88 -17 z "},"j":{"ha":176,"x_min":-494,"x_max":279,"o":"m 240 517 q 213 528 224 517 q 203 554 203 539 q 207 574 203 565 q 240 594 219 594 q 260 589 249 594 q 279 556 279 578 q 275 538 279 546 q 240 517 263 517 m -475 -447 q -494 -376 -494 -418 q -472 -293 -494 -333 q -372 -160 -429 -215 q -256 -69 -315 -104 q -112 6 -196 -35 l 149 468 q 163 483 154 478 q 182 488 172 488 q 201 482 194 488 q 221 450 221 471 q 215 431 221 438 q 82 195 124 268 q 33 110 40 122 l 49 136 l 10 67 q 119 144 72 103 q 199 244 165 186 q 232 264 210 264 q 259 253 249 264 q 269 226 269 242 q 265 208 269 217 q 135 58 213 114 q -58 -53 58 3 l -235 -364 q -318 -457 -274 -426 q -401 -487 -362 -487 q -444 -477 -425 -487 q -475 -447 -464 -467 m -410 -408 q -388 -410 -406 -415 q -347 -383 -371 -404 q -300 -325 -324 -361 l -181 -114 q -312 -208 -258 -157 q -404 -329 -367 -258 q -418 -376 -418 -353 q -410 -408 -418 -394 z "},"k":{"ha":329,"x_min":-89,"x_max":424,"o":"m 190 -17 q 132 14 150 -17 q 97 104 114 44 q 71 176 83 157 l -18 19 q -50 1 -28 1 q -78 13 -67 1 q -89 38 -89 24 q -83 57 -89 50 q 113 406 -21 171 q 310 753 246 640 q 343 772 321 772 q 361 768 353 772 q 381 735 381 757 q 375 715 381 725 l 256 503 q 275 504 263 504 q 343 479 317 504 q 367 417 367 456 q 340 332 367 376 q 263 251 313 288 q 146 199 213 214 q 172 119 157 178 q 181 90 175 111 q 194 60 188 68 q 242 90 214 64 q 351 244 294 142 q 386 264 363 264 q 404 260 396 264 q 424 226 424 249 q 418 207 424 217 q 190 -17 292 -17 m 125 272 q 214 309 176 283 q 271 365 251 335 q 290 415 290 394 q 288 425 290 422 q 275 428 288 428 q 214 400 243 428 q 172 349 193 381 q 125 272 151 318 z "},"l":{"ha":176,"x_min":-50,"x_max":379,"o":"m 42 -18 q -25 5 0 -18 q -50 71 -50 28 q -44 111 -50 90 q -19 169 -40 131 q 81 347 1 208 q 308 753 160 486 q 340 772 319 772 q 360 767 353 772 q 379 733 379 756 q 375 715 379 724 q 96 219 188 379 q 44 129 57 153 q 29 93 32 106 q 26 71 25 79 q 28 61 26 63 q 42 58 31 58 q 78 69 63 58 q 122 119 94 79 q 199 244 150 158 q 232 264 210 264 q 251 258 242 264 q 269 226 269 249 q 265 207 269 215 q 182 70 214 115 q 118 3 150 25 q 42 -18 86 -18 z "},"m":{"ha":553,"x_min":-89,"x_max":646,"o":"m 418 -17 q 336 22 358 -17 q 326 64 326 40 q 347 143 326 99 q 407 260 367 188 q 443 325 411 268 q 475 410 475 382 q 465 411 474 411 q 440 399 458 411 q 393 363 421 388 q 315 268 349 319 q 218 104 281 217 q 171 19 194 60 q 139 1 161 1 q 110 12 121 1 q 100 38 100 22 q 104 57 100 49 l 154 144 q 256 328 226 272 q 286 410 285 385 q 276 411 285 411 q 233 386 264 410 q 163 317 201 363 q 89 207 125 271 l -18 19 q -50 1 -28 1 q -78 13 -67 1 q -89 38 -89 24 q -83 57 -89 50 l 56 304 l 157 485 q 190 504 169 504 q 214 496 203 504 q 228 474 225 488 q 276 488 258 488 q 331 474 308 488 q 360 435 353 461 q 465 488 421 488 q 542 451 519 488 q 551 411 551 433 q 533 336 551 378 q 472 222 514 294 q 417 114 433 153 q 401 61 401 79 q 418 60 404 60 q 449 69 432 60 q 497 119 465 79 q 575 244 528 160 q 590 259 581 254 q 608 264 599 264 q 628 260 618 264 q 646 226 646 250 q 642 207 646 218 q 551 67 589 115 q 483 1 514 18 q 418 -17 453 -17 z "},"n":{"ha":393,"x_min":-87,"x_max":488,"o":"m 258 -17 q 176 21 199 -17 q 165 65 165 38 q 183 143 165 100 q 240 258 201 186 q 306 410 307 376 q 294 411 303 411 q 245 385 281 410 q 168 315 210 361 q 92 207 126 269 l -15 19 q -47 1 -25 1 q -67 6 -58 1 q -82 21 -76 11 q -87 40 -87 31 q -83 57 -87 49 q 160 485 -74 76 q 193 504 171 504 q 219 494 207 504 q 232 468 231 483 q 294 488 269 488 q 371 451 349 488 q 382 410 382 432 q 363 331 382 375 q 308 224 343 286 q 284 177 303 213 q 254 114 265 142 q 242 61 242 83 q 247 60 243 61 q 258 60 250 60 q 289 69 272 60 q 337 119 306 79 q 417 244 368 160 q 450 264 428 264 q 468 260 460 264 q 488 226 488 249 q 482 207 488 217 q 357 26 404 69 q 306 -8 329 0 q 258 -17 283 -17 z "},"o":{"ha":389,"x_min":-4,"x_max":482,"o":"m 118 -17 q 29 18 63 -17 q -4 117 -4 53 q 33 269 -4 181 q 126 421 69 357 q 238 486 182 485 q 293 504 267 504 q 361 463 339 504 q 375 390 375 435 q 359 281 375 340 q 322 174 343 222 q 381 201 364 183 q 411 244 397 218 q 444 264 422 264 q 463 260 454 264 q 477 245 472 254 q 482 226 482 236 q 478 207 482 218 l 475 204 q 278 92 421 96 q 201 11 242 39 q 118 -17 160 -17 m 239 176 q 284 292 268 233 q 300 392 300 351 q 293 428 300 417 q 268 414 282 426 q 243 379 254 401 q 214 257 214 324 q 239 176 214 197 m 118 60 q 197 113 154 60 q 138 256 138 154 q 143 317 138 290 q 91 209 110 265 q 72 114 72 153 q 83 72 72 86 q 118 60 92 60 z "},"p":{"ha":388,"x_min":-281,"x_max":481,"o":"m -261 -335 q -281 -303 -281 -324 q -275 -283 -281 -290 l 161 492 q 194 511 172 511 q 222 499 213 511 q 289 518 258 518 q 357 487 331 518 q 383 400 383 456 q 326 217 383 321 q 256 99 283 135 q 410 244 350 138 q 443 264 421 264 q 463 260 453 264 q 481 226 481 250 q 476 207 481 218 q 339 56 425 114 q 156 -1 253 -1 q 57 15 107 -1 q 1 53 28 25 l -208 -321 q -242 -340 -219 -340 q -261 -335 -251 -340 m 99 85 q 150 99 128 85 q 197 147 172 113 q 260 253 222 182 q 306 400 306 336 q 299 436 306 425 q 289 442 296 442 q 226 407 264 442 q 163 331 190 374 q 83 197 135 288 l 46 132 q 99 85 60 85 z "},"q":{"ha":414,"x_min":-3,"x_max":507,"o":"m 93 -349 q 8 -306 33 -349 q -3 -261 -3 -287 q 21 -182 -3 -225 l 22 -179 l 125 1 l 101 0 q 24 43 50 0 q 1 128 1 74 q 24 243 1 179 q 85 365 46 307 q 187 473 133 439 q 289 507 240 507 q 344 496 318 507 q 386 465 369 485 l 397 485 q 429 504 408 504 q 449 499 442 504 q 468 465 468 488 q 464 447 468 456 l 88 -219 q 75 -251 78 -237 q 75 -268 72 -264 q 93 -272 75 -272 q 142 -252 121 -272 q 201 -168 163 -232 q 342 78 239 -104 l 436 244 q 469 264 447 264 q 488 260 479 264 q 502 245 497 254 q 507 226 507 236 q 503 207 507 218 l 315 -124 q 203 -299 240 -257 q 153 -337 179 -325 q 93 -349 128 -349 m 101 76 q 160 94 135 76 q 207 147 185 111 l 343 388 q 322 420 339 410 q 288 431 306 431 q 193 378 242 431 q 111 254 144 326 q 78 128 78 182 q 88 85 78 97 q 101 76 92 76 m 22 -179 l 21 -182 l 22 -179 z "},"r":{"ha":369,"x_min":17,"x_max":464,"o":"m 231 -17 q 157 19 178 -17 q 147 63 147 38 q 217 244 147 126 l 313 417 q 224 447 260 425 l 88 207 q 56 189 78 189 q 28 200 39 189 q 17 225 17 211 q 22 244 17 238 l 165 499 q 128 613 128 549 q 164 724 128 676 q 254 772 200 772 q 324 738 303 772 q 335 693 335 721 q 317 617 335 657 q 282 550 299 578 q 261 514 265 522 q 375 488 304 488 q 402 476 392 488 q 413 449 413 465 q 408 431 413 439 l 351 331 q 247 138 274 192 q 224 60 219 83 q 306 115 258 51 q 392 244 354 178 q 426 264 403 264 q 444 260 436 264 q 464 226 464 249 q 458 207 464 217 q 349 49 406 115 q 231 -17 293 -17 m 210 578 q 250 657 240 633 q 258 696 258 682 q 220 673 236 697 q 204 614 204 649 q 210 578 204 594 z "},"s":{"ha":403,"x_min":17,"x_max":496,"o":"m 186 -17 q 167 -18 179 -18 q 80 13 115 -18 q 44 92 44 44 q 61 151 44 121 q 76 166 67 161 q 94 171 85 171 q 114 165 107 171 q 133 133 133 154 q 128 114 133 121 q 122 92 122 103 q 128 75 122 81 q 168 58 142 58 q 235 99 206 58 q 264 226 264 139 q 258 346 264 268 q 256 391 257 365 q 254 449 254 417 l 256 481 q 206 413 228 449 q 124 272 183 378 q 108 243 117 260 q 88 207 99 226 q 56 189 78 189 q 28 200 39 189 q 17 225 17 211 q 22 244 17 238 l 119 418 q 243 576 172 513 q 399 639 314 639 q 425 627 414 639 q 436 600 436 615 q 425 574 436 585 q 399 563 414 563 q 346 538 360 563 q 332 442 332 513 q 335 347 332 385 q 340 231 340 256 q 328 125 340 167 q 425 244 383 172 q 458 264 436 264 q 476 260 468 264 q 491 245 486 254 q 496 226 496 236 q 492 207 496 218 q 374 63 438 113 q 260 -1 310 14 q 186 -17 211 -17 z "},"t":{"ha":214,"x_min":-36,"x_max":379,"o":"m 78 -18 q -6 18 25 -18 q -36 104 -36 54 q -18 174 -36 142 l 125 428 l 106 428 q 78 439 90 428 q 67 465 67 450 q 78 493 67 482 q 106 504 90 504 l 168 504 l 308 753 q 342 772 319 772 q 360 768 351 772 q 374 753 369 763 q 379 735 379 744 q 375 715 379 726 l 256 504 l 282 504 q 309 493 297 504 q 321 465 321 482 q 309 439 321 450 q 282 428 297 428 l 213 428 l 49 136 q 40 104 40 122 q 43 86 40 97 q 78 58 51 58 q 116 69 100 58 q 160 119 132 79 q 236 244 188 158 q 268 264 247 264 q 288 258 281 264 q 307 225 307 247 q 303 207 307 215 q 219 70 251 115 q 155 3 188 25 q 78 -18 122 -18 z "},"u":{"ha":390,"x_min":-37,"x_max":486,"o":"m 68 -18 q -10 15 17 -18 q -37 94 -37 47 q -18 168 -37 133 l 150 467 q 185 486 161 486 q 203 482 194 486 q 222 449 222 471 q 217 429 222 439 l 49 131 q 39 86 36 113 q 47 65 42 71 q 68 58 53 58 q 129 84 101 58 q 192 167 157 110 q 306 364 228 224 l 364 468 q 378 483 369 478 q 397 488 388 488 q 417 482 410 488 q 436 450 436 471 q 431 431 436 438 l 257 122 q 244 87 249 106 q 243 63 240 68 q 257 60 246 60 q 295 68 281 60 q 337 115 310 76 q 415 244 364 154 q 449 264 426 264 q 467 260 458 264 q 486 226 486 249 q 481 207 486 217 q 410 88 436 128 q 364 28 385 49 q 315 -8 339 1 q 257 -17 290 -17 q 176 25 200 -17 q 126 -8 153 1 q 68 -18 100 -18 z "},"v":{"ha":369,"x_min":7,"x_max":463,"o":"m 51 -17 q 26 -9 38 -18 q 13 14 15 0 q 10 34 13 15 q 7 94 7 53 q 10 154 7 110 q 106 468 22 322 q 138 488 117 488 q 157 482 150 488 q 176 449 176 471 q 172 431 176 439 q 103 258 122 343 q 83 101 83 172 l 85 68 q 174 144 128 89 q 151 238 151 179 q 174 356 151 293 q 235 462 196 419 q 324 504 275 504 q 379 476 360 504 q 393 424 393 457 q 360 297 393 369 q 289 169 328 225 q 352 201 324 176 q 392 244 381 225 q 425 264 403 264 q 443 260 435 264 q 463 225 463 247 q 458 207 463 215 q 436 177 451 196 q 400 142 421 158 q 272 92 339 92 q 235 97 257 92 q 51 -17 139 -17 m 229 217 q 300 354 276 290 q 317 426 317 399 q 256 356 285 415 q 228 239 228 297 q 229 217 228 224 z "},"w":{"ha":576,"x_min":-44,"x_max":669,"o":"m 53 -17 q -19 11 8 -17 q -44 83 -44 38 q -24 164 -44 125 l 149 467 q 182 486 160 486 q 200 482 192 486 q 219 447 219 469 q 215 429 219 438 l 43 126 q 32 83 32 106 q 36 64 32 68 q 53 60 40 60 q 102 78 81 60 q 158 153 124 97 q 281 365 192 208 l 338 467 q 371 486 349 486 q 389 482 381 486 q 408 449 408 471 q 403 429 408 439 l 232 126 q 221 83 221 106 q 225 64 221 68 q 242 60 229 60 q 313 88 275 60 q 383 153 350 115 q 371 225 371 182 q 392 351 371 285 q 451 460 414 417 q 535 504 489 504 q 589 478 569 504 q 603 426 603 458 q 565 292 603 369 q 485 158 528 215 q 542 177 510 156 q 599 244 574 199 q 613 259 604 254 q 632 264 622 264 q 651 260 642 264 q 669 226 669 250 q 665 207 669 218 q 583 113 629 143 q 490 82 536 82 q 435 94 460 82 q 331 9 381 36 q 242 -18 282 -18 q 191 -6 213 -18 q 158 26 169 7 q 110 -6 136 4 q 53 -17 85 -17 m 447 238 q 501 337 476 283 q 526 425 525 390 q 475 352 500 410 q 447 238 450 294 z "},"x":{"ha":451,"x_min":18,"x_max":543,"o":"m 332 -17 q 279 6 301 -17 q 255 58 261 26 q 249 131 249 89 l 140 -3 q 110 -17 126 -17 q 88 -8 99 -17 q 74 21 74 4 q 82 44 74 35 l 256 257 q 261 361 261 340 q 253 428 261 413 q 217 404 239 428 q 89 208 171 357 q 56 189 76 189 q 38 193 46 189 q 18 226 18 206 q 22 244 18 236 q 161 456 115 407 q 210 493 188 483 q 256 503 232 503 q 307 482 286 503 q 336 356 339 446 l 447 490 q 475 503 458 503 q 500 494 490 503 q 513 467 513 485 q 504 442 513 453 l 329 228 q 324 129 324 156 q 333 58 324 76 q 384 95 358 60 q 474 244 410 131 q 506 264 485 264 q 524 258 517 264 q 543 225 543 247 q 539 208 543 217 q 458 71 483 111 q 402 7 432 31 q 332 -17 372 -17 z "},"y":{"ha":378,"x_min":-283,"x_max":471,"o":"m -24 -364 q -106 -457 -62 -426 q -187 -487 -149 -487 q -256 -457 -229 -487 q -283 -379 -283 -426 q -260 -293 -283 -336 q -134 -135 -208 -197 q 49 -17 -60 -72 q -18 20 6 -11 q -42 94 -42 51 q -22 168 -42 133 l 147 467 q 181 486 158 486 q 199 482 190 486 q 218 447 218 469 q 214 429 218 438 l 44 131 q 36 86 32 108 q 44 65 39 71 q 64 58 49 58 q 124 83 97 58 q 186 163 151 107 q 303 364 221 219 q 361 468 328 413 q 394 488 372 488 q 414 482 404 488 q 432 450 432 472 q 428 431 432 439 l 226 75 q 324 149 282 108 q 399 244 367 189 q 413 259 404 254 q 432 264 422 264 q 451 260 442 264 q 471 228 471 249 q 465 208 471 215 q 341 61 414 115 q 156 -49 268 7 q 67 -207 128 -99 q -24 -364 6 -315 m -186 -412 q -142 -390 -168 -412 q -89 -325 -117 -368 l 32 -111 q -100 -206 -46 -156 q -193 -329 -154 -257 q -207 -379 -207 -357 q -201 -403 -207 -394 q -186 -412 -194 -412 z "},"z":{"ha":406,"x_min":-254,"x_max":499,"o":"m 6 -364 q -76 -458 -33 -428 q -158 -487 -119 -487 q -227 -457 -200 -487 q -254 -379 -254 -426 q -231 -293 -254 -336 q -133 -160 -189 -215 q -19 -71 -76 -106 q 119 4 39 -36 l 128 26 q 140 89 140 63 q 131 119 140 110 q 117 149 117 132 q 128 176 117 164 q 156 188 139 188 q 239 236 193 188 q 314 335 285 285 q 332 396 332 369 q 321 425 332 418 q 307 428 315 428 q 213 376 272 428 q 89 207 154 324 q 56 188 78 188 q 36 193 46 188 q 17 225 17 204 q 22 244 17 238 q 173 442 99 379 q 307 504 247 504 q 358 492 338 504 q 395 453 382 478 q 408 396 408 428 q 381 297 408 349 q 363 269 379 296 q 317 208 347 243 q 213 124 264 147 q 217 90 217 107 q 213 51 217 71 q 338 134 285 89 q 428 244 390 179 q 461 264 439 264 q 488 253 478 264 q 499 226 499 242 q 494 208 499 217 q 367 58 442 114 q 179 -51 293 3 q 147 -114 168 -76 q 85 -224 126 -151 q 53 -280 72 -246 q 6 -362 35 -314 l 6 -364 m -167 -410 q -122 -397 -153 -418 q -60 -325 -92 -376 l 61 -111 q -71 -206 -17 -156 q -164 -329 -125 -257 q -178 -379 -178 -354 q -167 -410 -178 -403 z "},"\\":{"ha":583,"x_min":0,"x_max":557,"o":"m 538 -12 q 519 -17 529 -17 q 485 3 497 -17 l 6 846 q 0 865 0 853 q 5 884 0 875 q 19 899 10 893 q 38 903 28 903 q 71 883 60 903 l 551 40 q 557 21 557 33 q 552 2 557 11 q 538 -12 547 -7 z "},"":{"ha":142,"x_min":0,"x_max":142,"o":"m 69 263 q 21 283 42 263 q 0 332 0 303 q 11 371 0 349 q 37 397 21 388 q 71 406 53 406 q 106 397 89 406 q 133 372 124 388 q 142 338 142 356 q 121 285 142 308 q 69 263 100 263 z "},"":{"ha":219,"x_min":0,"x_max":219,"o":"m 108 222 q 32 254 64 222 q 0 331 0 286 q 17 390 0 360 q 56 431 31 417 q 111 446 82 446 q 165 432 142 446 q 206 391 193 415 q 219 339 219 367 q 188 258 219 293 q 108 222 157 222 z "},":":{"ha":226,"x_min":0,"x_max":226,"o":"m 168 432 q 149 465 149 444 q 154 486 149 476 q 188 504 164 504 q 215 493 204 504 q 226 468 226 482 q 221 449 226 456 q 188 426 208 426 q 168 432 179 426 m 19 168 q 0 201 0 181 q 6 222 0 213 q 39 242 17 242 q 58 236 49 242 q 78 204 78 225 q 72 185 78 192 q 38 163 60 163 q 19 168 31 163 z "},",":{"ha":108,"x_min":0,"x_max":108,"o":"m 39 13 q 25 8 32 8 q 4 19 11 8 q 0 33 0 26 q 7 51 0 44 q 17 63 8 54 q 28 81 25 72 q 32 108 36 97 q 36 138 28 125 q 60 156 44 151 q 94 148 79 160 q 108 117 108 136 q 103 84 108 104 q 76 42 99 64 q 39 13 61 25 z "},"":{"ha":397,"x_min":0,"x_max":397,"o":"m 38 33 q 11 44 22 33 q 0 71 0 56 q 6 92 0 82 q 20 106 11 101 q 39 111 29 111 q 58 107 47 111 q 78 74 78 94 q 66 46 78 58 q 38 33 54 33 m 199 33 q 172 44 183 33 q 161 71 161 56 q 167 92 161 82 q 200 111 178 111 q 218 107 210 111 q 238 74 238 96 q 226 46 238 58 q 199 33 215 33 m 358 33 q 332 44 343 33 q 321 71 321 56 q 326 92 321 82 q 360 111 338 111 q 378 107 369 111 q 397 74 397 96 q 386 46 397 58 q 358 33 375 33 z "},"!":{"ha":525,"x_min":0,"x_max":525,"o":"m 81 146 q 61 178 61 157 q 67 197 61 190 l 453 883 q 486 901 463 901 q 506 897 496 901 q 525 864 525 886 q 519 844 525 854 l 132 160 q 100 140 121 140 q 81 146 88 140 m 19 39 q 6 52 11 43 q 0 72 0 61 q 6 92 0 82 q 39 111 17 111 q 58 106 49 111 q 76 74 76 96 q 72 54 76 63 q 39 33 60 33 q 19 39 31 33 z "},"":{"ha":525,"x_min":0,"x_max":525,"o":"m 467 829 q 447 861 447 840 q 453 881 447 874 q 486 903 463 903 q 506 897 494 903 q 525 864 525 885 q 519 843 525 853 q 505 828 514 833 q 486 824 496 824 q 467 829 474 824 m 19 38 q 5 52 10 43 q 0 71 0 61 q 6 90 0 83 l 392 775 q 425 794 403 794 q 444 789 435 794 q 464 757 464 778 q 458 738 464 744 l 71 53 q 38 33 60 33 q 19 38 28 33 z "},"#":{"ha":833,"x_min":0,"x_max":928,"o":"m 185 493 q 158 505 169 493 q 146 532 146 517 q 158 558 146 547 q 185 569 169 569 l 339 569 l 450 767 q 482 785 460 785 q 501 781 493 785 q 516 766 511 775 q 521 747 521 757 q 517 728 521 739 l 426 569 l 618 569 q 645 558 633 569 q 657 532 657 547 q 645 505 657 517 q 618 493 633 493 l 185 493 m 310 236 q 283 247 294 236 q 271 274 271 258 q 283 301 271 290 q 310 313 294 313 l 544 313 l 803 767 q 835 785 813 785 q 854 781 846 785 q 874 747 874 769 q 868 728 874 738 l 779 569 l 889 569 q 917 558 906 569 q 928 532 928 547 q 917 505 928 517 q 889 493 906 493 l 736 493 l 632 313 l 743 313 q 770 301 758 313 q 782 274 782 290 q 770 247 782 258 q 743 236 758 236 l 310 236 m 92 21 q 65 32 76 21 q 54 58 54 43 q 60 78 54 68 l 149 236 l 39 236 q 11 247 22 236 q 0 274 0 258 q 11 301 0 290 q 39 313 22 313 l 192 313 l 281 468 q 314 488 292 488 q 333 482 324 488 q 351 450 351 472 q 347 431 351 439 l 125 40 q 92 21 114 21 m 426 25 q 407 60 407 36 q 411 78 407 69 l 488 210 q 521 229 499 229 q 539 225 531 229 q 553 210 549 219 q 558 192 558 201 q 553 172 558 179 l 478 40 q 444 21 467 21 q 426 25 435 21 z "},".":{"ha":78,"x_min":0,"x_max":78,"o":"m 38 33 q 11 44 22 33 q 0 71 0 56 q 6 92 0 82 q 20 106 11 101 q 39 111 29 111 q 58 107 47 111 q 78 74 78 94 q 66 46 78 58 q 38 33 54 33 z "},"?":{"ha":715,"x_min":0,"x_max":715,"o":"m 103 142 q 85 146 93 142 q 65 181 65 157 q 69 199 65 190 q 181 324 111 272 q 365 442 251 376 q 480 510 435 481 q 560 572 525 539 q 639 739 639 646 q 608 799 639 778 q 492 828 571 828 q 371 795 425 828 q 281 721 317 763 q 217 622 240 676 q 193 524 193 568 q 182 497 193 508 q 156 485 171 485 q 128 497 140 485 q 117 524 117 508 q 146 650 117 586 q 224 772 174 715 q 340 865 278 833 q 492 904 413 904 q 654 861 594 904 q 715 739 715 817 q 613 517 715 614 q 525 449 574 481 q 403 375 476 417 q 234 269 297 315 q 136 161 171 222 q 103 142 125 142 m 38 33 q 19 39 26 33 q 0 71 0 50 q 6 90 0 83 l 6 92 q 39 111 17 111 q 58 106 49 111 q 78 74 78 94 q 72 54 78 61 l 71 53 q 38 33 60 33 z "},"":{"ha":715,"x_min":0,"x_max":715,"o":"m 657 831 q 642 845 647 836 q 638 864 638 854 q 643 883 638 876 l 643 885 q 658 899 649 894 q 676 904 667 904 q 696 899 686 904 q 715 867 715 888 q 710 847 715 854 l 710 846 q 675 826 699 826 q 657 831 665 826 m 224 33 q 61 76 118 33 q 0 199 0 121 q 103 421 0 324 q 192 490 142 457 q 313 561 243 522 q 483 669 421 624 q 579 776 544 715 q 613 796 590 796 q 631 790 624 796 q 650 757 650 779 q 646 739 650 747 q 535 614 604 665 q 350 496 465 563 q 229 423 269 449 q 156 365 189 397 q 76 199 76 290 q 106 138 76 161 q 224 110 146 110 q 435 215 336 110 q 499 315 475 261 q 522 414 522 368 q 533 440 522 429 q 560 451 544 451 q 587 440 575 451 q 599 414 599 429 q 569 286 599 358 q 492 165 539 219 q 374 72 442 107 q 224 33 301 33 z "},";":{"ha":253,"x_min":0,"x_max":253,"o":"m 214 426 q 188 438 199 426 q 176 464 176 449 q 182 486 176 476 q 214 504 192 504 q 233 500 225 504 q 253 468 253 490 q 242 439 253 451 q 214 426 231 426 m 39 142 q 25 138 32 138 q 4 150 11 138 q 0 164 0 157 q 7 181 0 174 q 28 210 24 201 q 32 239 36 225 q 36 267 28 254 q 60 285 44 281 q 94 277 79 289 q 108 247 108 265 q 106 222 108 238 q 88 185 103 207 q 39 142 72 163 z "},"/":{"ha":557,"x_min":0,"x_max":557,"o":"m 38 -17 q 19 -12 28 -17 q 5 2 10 -7 q 0 21 0 11 q 6 40 0 33 l 485 883 q 499 898 490 893 q 518 903 508 903 q 538 899 526 903 q 552 884 547 893 q 557 865 557 875 q 551 846 557 853 l 71 3 q 38 -17 60 -17 z "},"(":{"ha":633,"x_min":0,"x_max":633,"o":"m 90 -31 q 0 213 0 58 q 83 525 0 363 q 305 795 167 688 q 596 903 443 903 q 622 891 611 903 q 633 864 633 879 q 622 838 633 849 q 596 826 611 826 q 344 729 464 826 q 150 487 224 632 q 76 213 76 342 q 144 25 76 92 q 156 -3 156 11 q 144 -29 156 -18 q 117 -40 133 -40 q 90 -31 100 -40 z "},")":{"ha":633,"x_min":0,"x_max":633,"o":"m 39 -42 q 11 -30 22 -42 q 0 -3 0 -18 q 11 24 0 13 q 39 35 22 35 q 291 133 171 35 q 485 375 411 231 q 558 649 558 519 q 490 836 558 769 q 479 864 479 847 q 489 890 479 881 q 517 901 500 901 q 543 892 533 901 q 633 649 633 801 q 550 336 633 499 q 329 66 467 174 q 39 -42 192 -42 z "},"":{"ha":565,"x_min":0,"x_max":565,"o":"m 39 296 q 11 307 22 296 q 0 335 0 318 q 11 361 0 350 q 39 372 22 372 l 528 372 q 554 361 543 372 q 565 335 565 350 q 554 307 565 318 q 528 296 543 296 l 39 296 z "},"":{"ha":426,"x_min":0,"x_max":426,"o":"m 39 296 q 11 307 22 296 q 0 335 0 318 q 11 361 0 350 q 39 372 22 372 l 389 372 q 415 361 404 372 q 426 335 426 350 q 415 307 426 318 q 389 296 404 296 l 39 296 z "},"-":{"ha":288,"x_min":0,"x_max":288,"o":"m 39 296 q 11 307 22 296 q 0 335 0 318 q 11 361 0 350 q 39 372 22 372 l 250 372 q 276 361 265 372 q 288 335 288 350 q 276 307 288 318 q 250 296 265 296 l 39 296 z "},"":{"ha":108,"x_min":0,"x_max":108,"o":"m 108 117 q 103 84 108 104 q 76 42 99 64 q 39 13 61 25 q 25 8 32 8 q 4 19 11 8 q 0 33 0 26 q 7 51 0 44 q 17 63 8 54 q 28 81 25 72 q 32 108 36 97 q 36 138 28 125 q 60 156 44 151 q 94 148 79 160 q 108 117 108 136 z "},"":{"ha":214,"x_min":0,"x_max":214,"o":"m 49 585 q 15 592 29 581 q 0 624 0 604 q 3 648 0 633 q 21 685 6 663 q 68 728 36 708 q 82 732 75 732 q 104 719 96 732 q 107 707 107 715 q 101 689 107 694 q 92 678 99 686 q 81 660 85 671 q 75 632 72 643 q 76 632 76 632 q 72 603 79 617 q 49 585 64 589 m 146 583 q 117 595 129 583 q 107 624 106 607 q 109 649 107 636 q 126 685 111 663 q 175 728 144 708 q 189 732 182 732 q 210 719 204 732 q 214 706 214 714 q 207 689 214 696 q 186 660 192 671 q 182 632 179 640 q 176 599 188 614 q 146 583 164 583 z "},"":{"ha":214,"x_min":0,"x_max":214,"o":"m 39 588 q 25 583 33 583 q 4 596 11 583 q 0 610 0 603 q 7 626 0 619 q 28 656 24 647 q 32 685 36 671 q 36 713 28 700 q 60 731 44 726 q 94 723 79 735 q 108 693 108 711 q 106 668 108 683 q 88 631 103 653 q 39 588 72 608 m 146 588 q 132 583 140 583 q 110 596 118 583 q 107 608 107 600 q 113 626 107 621 q 135 656 126 640 q 139 685 142 676 l 139 683 l 138 685 q 146 717 135 701 q 175 732 157 732 q 202 721 190 732 q 214 693 214 710 q 211 668 214 683 q 193 631 208 653 q 146 588 178 610 z "},"":{"ha":107,"x_min":0,"x_max":107,"o":"m 49 585 q 15 592 29 581 q 0 624 0 604 q 3 648 0 633 q 21 685 6 663 q 68 728 36 708 q 82 732 75 732 q 104 719 96 732 q 107 707 107 715 q 101 689 107 694 q 92 678 99 686 q 81 660 85 671 q 75 632 72 643 q 76 632 76 632 q 72 603 79 617 q 49 585 64 589 z "},"":{"ha":108,"x_min":0,"x_max":108,"o":"m 39 588 q 25 583 33 583 q 4 596 11 583 q 0 610 0 603 q 7 626 0 619 q 28 656 24 647 q 32 685 36 671 q 36 713 28 700 q 60 731 44 726 q 94 723 79 735 q 108 693 108 711 q 106 668 108 683 q 88 631 103 653 q 39 588 72 608 z "},"":{"ha":833,"x_min":0,"x_max":108,"o":"m 39 13 q 25 8 32 8 q 4 19 11 8 q 0 33 0 26 q 7 51 0 44 q 17 63 8 54 q 28 81 25 72 q 32 108 36 97 q 36 138 28 125 q 60 156 44 151 q 94 148 79 160 q 108 117 108 136 q 103 84 108 104 q 76 42 99 64 q 39 13 61 25 z "},"$":{"ha":675,"x_min":0,"x_max":675,"o":"m 38 21 q 19 25 28 21 q 5 40 10 31 q 0 58 0 49 q 6 78 0 71 l 58 172 q 38 211 46 192 q 19 300 19 253 q 82 456 19 390 q 110 467 93 467 q 136 456 126 467 q 147 429 147 446 q 136 401 147 413 q 96 303 96 360 q 104 253 96 283 l 264 533 q 233 633 233 581 q 247 699 233 668 q 286 754 261 731 q 419 808 339 801 l 461 882 q 494 901 472 901 q 514 896 504 901 q 532 864 532 886 q 528 844 532 853 l 503 799 q 546 779 522 793 l 604 882 q 636 901 615 901 q 656 896 649 901 q 675 863 675 885 q 671 844 675 853 l 601 724 l 607 717 q 625 647 625 685 q 603 571 625 607 q 569 553 592 553 q 550 558 560 553 q 532 590 532 569 q 535 604 532 596 l 443 444 q 482 326 482 392 q 464 234 482 279 q 413 153 446 189 q 336 94 381 117 q 240 71 289 71 q 232 72 235 71 l 214 40 q 181 21 203 21 q 161 25 172 21 q 143 58 143 35 q 147 78 143 69 l 154 89 q 114 113 126 103 l 114 114 l 71 40 q 38 21 60 21 m 507 713 q 464 731 486 726 l 356 540 l 382 513 q 390 506 388 507 l 507 713 m 368 718 q 339 699 349 708 q 310 633 310 672 q 311 617 310 622 l 368 718 m 351 436 l 329 458 l 315 471 l 151 181 q 192 157 169 165 l 351 436 m 278 153 q 356 204 321 165 q 392 262 379 229 q 406 326 406 294 q 399 367 406 346 l 278 153 z "},">":{"ha":504,"x_min":0,"x_max":504,"o":"m 61 64 q 39 57 53 57 q 7 72 18 57 q 0 94 0 81 q 15 125 0 114 l 426 428 l 393 792 q 402 819 392 807 q 428 832 413 831 l 432 832 q 458 822 447 832 q 469 797 468 813 l 504 414 l 504 410 q 489 379 504 390 l 61 64 z "},"<":{"ha":504,"x_min":0,"x_max":504,"o":"m 72 57 q 47 67 57 57 q 35 92 36 78 l 0 476 l 0 481 q 4 497 0 489 q 15 510 8 506 l 443 825 q 467 833 453 833 q 497 817 488 833 q 504 794 504 808 q 489 764 504 775 l 78 461 l 111 99 q 102 71 113 83 q 76 57 92 58 l 72 57 z "},"%":{"ha":557,"x_min":0,"x_max":557,"o":"m 19 -12 q 5 2 10 -7 q 0 21 0 11 q 6 40 0 33 l 485 883 q 499 898 490 893 q 518 903 508 903 q 538 899 526 903 q 552 884 547 893 q 557 865 557 875 q 551 846 557 853 l 71 3 q 38 -17 60 -17 q 19 -12 28 -17 m 75 626 q 58 686 58 651 q 77 766 58 725 q 126 836 96 807 q 211 876 168 876 q 274 844 250 876 q 290 786 290 819 q 272 706 290 747 q 222 636 253 665 q 136 596 181 596 q 75 626 97 596 m 138 672 q 169 690 150 672 q 202 739 190 711 q 214 786 214 767 q 211 800 214 794 q 179 781 199 800 q 147 733 158 760 q 135 686 135 706 q 138 672 135 678 m 431 24 q 346 -17 389 -17 q 289 9 311 -17 q 267 76 267 35 q 278 138 267 108 q 333 224 297 188 q 421 264 375 264 q 481 233 458 264 q 499 172 499 207 q 486 111 499 143 q 431 24 467 60 m 346 60 q 378 79 358 60 q 410 127 399 100 q 422 174 422 154 q 419 189 422 183 q 388 169 406 185 q 354 122 365 149 q 343 75 343 96 q 346 60 343 65 z "},"":{"ha":788,"x_min":0,"x_max":788,"o":"m 19 -12 q 5 2 10 -7 q 0 21 0 11 q 6 40 0 33 l 485 883 q 499 898 490 893 q 518 903 508 903 q 538 899 526 903 q 552 884 547 893 q 557 865 557 875 q 551 846 557 853 l 71 3 q 38 -17 60 -17 q 19 -12 28 -17 m 75 626 q 58 686 58 651 q 77 766 58 725 q 126 836 96 807 q 211 876 168 876 q 274 844 250 876 q 290 786 290 819 q 272 706 290 747 q 222 636 253 665 q 136 596 181 596 q 75 626 97 596 m 138 672 q 169 690 150 672 q 202 739 190 711 q 214 786 214 767 q 211 800 214 794 q 179 781 199 800 q 147 733 158 760 q 135 686 135 706 q 138 672 135 678 m 431 24 q 346 -17 389 -17 q 289 9 311 -17 q 267 76 267 35 q 278 138 267 108 q 333 224 297 188 q 421 264 375 264 q 481 233 458 264 q 499 172 499 207 q 486 111 499 143 q 431 24 467 60 m 721 24 q 635 -17 679 -17 q 579 8 601 -17 q 557 75 557 33 q 568 138 557 108 q 624 224 588 188 q 711 264 665 264 q 771 233 749 264 q 788 172 788 208 q 776 111 788 144 q 721 24 757 60 m 346 60 q 378 79 358 60 q 410 127 399 100 q 422 174 422 154 q 419 189 422 183 q 388 169 406 185 q 354 122 365 149 q 343 75 343 96 q 346 60 343 65 m 635 60 q 668 79 649 60 q 701 127 689 100 q 713 174 713 154 q 710 189 713 183 q 678 169 693 185 q 644 120 656 147 q 633 72 633 93 q 635 60 633 63 z "},"@":{"ha":864,"x_min":0,"x_max":864,"o":"m 265 -17 q 150 5 201 -17 q 64 69 99 26 q 0 272 0 146 q 42 483 0 369 q 163 686 86 594 q 353 842 242 785 q 604 904 469 904 q 692 892 649 904 q 769 856 735 879 q 840 778 815 824 q 864 675 864 732 q 832 533 864 611 q 744 383 800 454 q 622 264 693 314 q 475 206 546 211 l 469 206 q 382 253 410 207 l 375 267 q 294 243 342 243 q 222 282 249 243 q 203 358 203 313 q 222 456 203 401 q 271 558 240 511 q 360 654 310 621 q 465 688 411 688 q 540 660 513 688 q 571 674 553 674 q 589 669 581 674 q 608 635 608 658 q 604 617 608 625 l 557 535 q 528 483 550 518 l 514 457 l 488 410 q 485 404 485 407 l 464 369 l 453 350 q 444 311 444 333 q 449 290 444 299 q 469 282 456 283 q 579 326 525 289 q 685 429 640 371 q 760 557 732 490 q 788 675 788 624 q 726 792 788 751 q 669 818 701 808 q 604 828 636 828 q 388 774 489 828 q 221 638 294 726 q 115 459 154 557 q 76 272 76 361 q 122 118 76 172 q 265 60 171 60 q 429 96 349 60 q 539 176 510 132 q 571 192 551 192 q 592 186 582 192 q 608 154 608 174 q 603 133 608 140 q 461 27 560 71 q 265 -17 363 -17 m 294 319 q 349 342 325 319 q 401 413 372 364 l 421 447 l 429 461 q 447 494 433 469 l 490 572 q 494 580 493 576 q 497 585 496 583 l 496 588 q 485 606 493 601 q 465 611 478 611 q 392 583 425 611 q 335 518 358 554 q 294 432 308 476 q 279 358 279 388 q 286 324 279 338 q 294 319 289 319 z "},"&":{"ha":833,"x_min":-1,"x_max":864,"o":"m 149 36 q 37 162 75 86 q -1 322 -1 238 q 40 491 -1 411 q 161 624 81 571 q 354 686 242 676 q 304 833 304 749 q 333 951 304 896 q 415 1042 361 1007 q 543 1076 469 1076 q 650 1047 606 1076 q 717 972 694 1018 q 740 876 740 926 q 719 788 740 828 q 658 728 699 747 q 592 714 628 714 q 524 730 554 714 q 478 770 494 746 q 461 815 461 794 q 485 849 461 840 q 511 846 499 853 q 528 825 524 839 q 552 794 533 806 q 593 783 571 783 q 648 808 625 783 q 671 879 671 832 q 632 974 671 940 q 539 1008 593 1008 q 460 988 497 1008 q 398 928 422 968 q 374 835 374 889 q 401 740 374 782 q 478 681 428 697 q 533 669 519 675 q 553 654 547 664 q 558 635 558 646 q 549 612 558 621 q 517 603 539 603 q 461 614 499 603 q 386 619 426 619 q 212 578 283 619 q 105 469 140 536 q 69 325 69 401 q 101 189 69 253 q 194 86 133 125 q 340 47 256 47 q 485 86 419 47 q 588 188 550 125 q 626 322 626 251 q 581 464 626 400 l 510 446 q 415 420 450 433 q 352 380 381 407 q 308 304 324 353 q 276 281 300 281 q 251 290 263 281 q 240 313 240 299 q 243 325 240 317 q 301 428 264 392 q 381 481 339 465 q 493 513 424 497 q 623 551 572 531 q 720 624 674 572 q 796 769 767 675 q 828 793 804 793 q 853 784 842 793 q 864 760 864 775 q 863 749 864 753 q 782 588 833 653 q 647 486 731 522 q 697 321 697 408 q 647 151 697 231 q 513 24 596 72 q 338 -24 429 -24 q 149 36 236 -24 z "}}}
